<svg width="722" height="801" viewBox="0 0 722 801" fill="none" xmlns="http://www.w3.org/2000/svg">
<path d="M331.851 503.787C333.23 517.118 344.484 527.042 357.597 527.042C358.489 527.042 359.387 526.997 360.293 526.904C374.529 525.432 384.878 512.699 383.406 498.463L371.453 382.818C369.981 368.582 357.241 358.247 343.012 359.705C328.776 361.177 318.427 373.91 319.899 388.146L331.851 503.787Z" fill="#B75418"/>
<path d="M494.033 526.904C494.938 526.997 495.837 527.042 496.728 527.042C509.845 527.042 521.096 517.118 522.474 503.788L534.423 388.143C535.895 373.903 525.546 361.17 511.31 359.702C497.063 358.247 484.337 368.582 482.865 382.815L470.916 498.459C469.444 512.699 479.793 525.432 494.033 526.904Z" fill="#B75418"/>
<path d="M293.369 639.549C249.136 639.549 213.152 675.534 213.152 719.766C213.152 764.009 249.136 800.003 293.369 800.003C337.601 800.003 373.589 764.009 373.589 719.766C373.589 675.534 337.601 639.549 293.369 639.549ZM293.369 748.169C277.716 748.169 264.983 735.426 264.983 719.763C264.983 704.11 277.716 691.377 293.369 691.377C309.022 691.377 321.758 704.11 321.758 719.763C321.758 735.426 309.022 748.169 293.369 748.169Z" fill="#B75418"/>
<path d="M560.957 639.549C516.724 639.549 480.737 675.534 480.737 719.766C480.737 764.009 516.721 800.003 560.957 800.003C605.193 800.003 641.184 764.009 641.184 719.766C641.184 675.534 605.193 639.549 560.957 639.549ZM560.957 748.169C545.304 748.169 532.567 735.426 532.567 719.763C532.567 704.11 545.304 691.377 560.957 691.377C576.613 691.377 589.353 704.11 589.353 719.763C589.353 735.426 576.617 748.169 560.957 748.169Z" fill="#B75418"/>
<path d="M715.969 273.251C711.062 266.904 703.491 263.186 695.468 263.186H178.906L157.213 179.77C154.241 168.349 143.93 160.378 132.13 160.378H25.9153C11.6032 160.378 0 171.981 0 186.293C0 200.605 11.6032 212.209 25.9153 212.209H112.093L133.609 294.951C133.716 295.414 133.837 295.874 133.969 296.326L213.985 604.014C216.956 615.434 227.267 623.406 239.067 623.406H615.268C627.068 623.406 637.379 615.434 640.351 604.014L720.55 295.622C722.568 287.864 720.875 279.602 715.969 273.251ZM595.231 571.582H259.105L192.385 315.02H661.954L595.231 571.582Z" fill="#B75418"/>
<path d="M325.428 182.62C330.486 187.676 337.117 190.205 343.748 190.205C350.382 190.205 357.017 187.672 362.079 182.61C372.196 172.486 372.193 156.076 362.069 145.959L280.566 64.4948C270.442 54.3774 254.036 54.3809 243.915 64.5017C233.798 74.626 233.801 91.0356 243.922 101.153L325.428 182.62Z" fill="#B75418"/>
<path d="M510.698 190.201C517.333 190.201 523.97 187.669 529.033 182.603L610.414 101.149C620.531 91.0251 620.521 74.6155 610.396 64.5016C600.272 54.3843 583.863 54.3947 573.749 64.5189L492.368 145.973C482.25 156.097 482.26 172.506 492.385 182.624C497.443 187.676 504.071 190.201 510.698 190.201Z" fill="#B75418"/>
<path d="M427.189 166.933H427.196C441.504 166.933 453.107 155.333 453.111 141.024L453.139 25.9223C453.142 11.6101 441.542 0.00345538 427.23 0H427.227C412.914 0 401.311 11.5997 401.308 25.9084L401.28 141.011C401.277 155.323 412.876 166.929 427.189 166.933Z" fill="#B75418"/>
</svg>
