<?xml version="1.0" encoding="utf-8"?>
<!-- Generator: Adobe Illustrator 21.0.0, SVG Export Plug-In . SVG Version: 6.00 Build 0)  -->
<svg version="1.1" xmlns="http://www.w3.org/2000/svg" xmlns:xlink="http://www.w3.org/1999/xlink" x="0px" y="0px"
	 viewBox="0 0 1400 1400" enable-background="new 0 0 1400 1400" xml:space="preserve">
<g id="Layer_3" display="none">
	<path display="inline" fill="none" stroke="#0E1235" stroke-width="8" stroke-miterlimit="10" d="M906.5,755.867h-413
		c-6.075,0-11-4.925-11-11v-39c0-6.075,4.925-11,11-11h413c6.075,0,11,4.925,11,11v39C917.5,750.942,912.575,755.867,906.5,755.867z
		"/>
	
		<line display="inline" fill="none" stroke="#0E1235" stroke-width="6" stroke-linecap="round" stroke-linejoin="round" stroke-miterlimit="10" x1="847.219" y1="643.902" x2="888.49" y2="694.867"/>
	
		<line display="inline" fill="none" stroke="#0E1235" stroke-width="6" stroke-linecap="round" stroke-linejoin="round" stroke-miterlimit="10" x1="766.287" y1="543.96" x2="823.227" y2="614.275"/>
	
		<path display="inline" fill="none" stroke="#0E1235" stroke-width="6" stroke-linecap="round" stroke-linejoin="round" stroke-miterlimit="10" d="
		M668.443,501.074l29.717-36.697c0.95-1.16,2.73-1.16,3.68,0l43.724,53.994"/>
	
		<line display="inline" fill="none" stroke="#0E1235" stroke-width="6" stroke-linecap="round" stroke-linejoin="round" stroke-miterlimit="10" x1="599.187" y1="586.596" x2="654.433" y2="518.374"/>
	
		<line display="inline" fill="none" stroke="#0E1235" stroke-width="6" stroke-linecap="round" stroke-linejoin="round" stroke-miterlimit="10" x1="511.51" y1="694.867" x2="571.531" y2="620.748"/>
	<path display="inline" fill="none" stroke="#0E1235" stroke-width="8" stroke-miterlimit="10" d="M906.5,694.867L712.227,454.965
		c-6.297-7.776-18.157-7.776-24.454,0L493.5,694.867"/>
	
		<circle display="inline" fill="none" stroke="#0E1235" stroke-width="6" stroke-linecap="round" stroke-linejoin="round" stroke-miterlimit="10" cx="700" cy="518.374" r="14.809"/>
	
		<circle display="inline" fill="none" stroke="#0E1235" stroke-width="6" stroke-linecap="round" stroke-linejoin="round" stroke-miterlimit="10" cx="614.309" cy="629.084" r="14.809"/>
	
		<circle display="inline" fill="none" stroke="#0E1235" stroke-width="6" stroke-linecap="round" stroke-linejoin="round" stroke-miterlimit="10" cx="745.564" cy="662.595" r="14.809"/>
	
		<path display="inline" fill="none" stroke="#0E1235" stroke-width="6" stroke-linecap="round" stroke-linejoin="round" stroke-miterlimit="10" d="
		M655.665,566.275c2.693-1.025,5.662-1.273,8.514-0.49c3.204,0.88,6.86,3.035,8.668,8.138c3.617,10.206-6.349,7.918-6.349,7.918
		l2.792,7.335l-4.907,1.868l-4.907,1.868l-2.792-7.335c0,0-5.922,8.335-10.007-1.693c-2.042-5.014-0.745-9.055,1.063-11.842
		c1.61-2.482,3.992-4.27,6.685-5.295L655.665,566.275z"/>
	
		<path display="inline" fill="none" stroke="#0E1235" stroke-width="6" stroke-linecap="round" stroke-linejoin="round" stroke-miterlimit="10" d="
		M777.846,605.685c2.07,2.005,3.553,4.588,4.052,7.504c0.561,3.275,0.158,7.5-3.697,11.3c-7.711,7.602-9.862-2.394-9.862-2.394
		l-5.46,5.637l-3.771-3.653l-3.771-3.653l5.46-5.637c0,0-10.059-1.831-2.708-9.781c3.676-3.975,7.886-4.512,11.177-4.056
		c2.93,0.406,5.56,1.806,7.63,3.811L777.846,605.685z"/>
	
		<path display="inline" fill="none" stroke="#0E1235" stroke-width="6" stroke-linecap="round" stroke-linejoin="round" stroke-miterlimit="10" d="
		M673.834,652.632c2.675,1.072,5.026,2.901,6.592,5.41c1.759,2.818,2.986,6.881,0.858,11.859
		c-4.257,9.956-10.035,1.519-10.035,1.519l-2.918,7.285l-4.874-1.952l-4.873-1.952l2.918-7.285c0,0-10.004,2.115-6.21-8.027
		c1.897-5.071,5.589-7.163,8.808-7.987c2.866-0.734,5.829-0.434,8.504,0.637L673.834,652.632z"/>
	
		<path display="inline" fill="none" stroke="#0E1235" stroke-width="5" stroke-linecap="round" stroke-linejoin="round" stroke-miterlimit="10" d="
		M733.731,581.481L733.731,581.481c-2.409-0.609-3.869-3.056-3.259-5.466l3.432-13.573c0.609-2.409,3.056-3.869,5.466-3.259l0,0
		c2.409,0.609,3.869,3.056,3.259,5.466l-3.432,13.573C738.588,580.631,736.141,582.09,733.731,581.481z"/>
	
		<path display="inline" fill="none" stroke="#0E1235" stroke-width="5" stroke-linecap="round" stroke-linejoin="round" stroke-miterlimit="10" d="
		M819.042,668.382L819.042,668.382c-2.285,0.977-4.93-0.084-5.906-2.369l-5.502-12.873c-0.977-2.285,0.084-4.93,2.369-5.906h0
		c2.285-0.977,4.93,0.084,5.906,2.369l5.502,12.873C822.388,664.761,821.328,667.405,819.042,668.382z"/>
	
		<path display="inline" fill="none" stroke="#0E1235" stroke-width="5" stroke-linecap="round" stroke-linejoin="round" stroke-miterlimit="10" d="
		M598.27,675.134L598.27,675.134c-1.243,2.152-3.995,2.89-6.147,1.647l-12.124-7c-2.152-1.243-2.89-3.995-1.647-6.147l0,0
		c1.243-2.152,3.995-2.89,6.147-1.647l12.124,7C598.775,670.23,599.513,672.982,598.27,675.134z"/>
	
		<path display="inline" fill="none" stroke="#0E1235" stroke-width="5" stroke-linecap="round" stroke-linejoin="round" stroke-miterlimit="10" d="
		M708.853,630.708L708.853,630.708c-2.152,1.243-4.904,0.505-6.147-1.647l-7-12.124c-1.243-2.152-0.505-4.904,1.647-6.147l0,0
		c2.152-1.243,4.904-0.505,6.147,1.647l7,12.124C711.743,626.713,711.005,629.465,708.853,630.708z"/>
	
		<line display="inline" fill="none" stroke="#0E1235" stroke-width="6" stroke-linecap="round" stroke-linejoin="round" stroke-miterlimit="10" x1="482.5" y1="738.2" x2="645.64" y2="738.2"/>
	
		<line display="inline" fill="none" stroke="#0E1235" stroke-width="6" stroke-linecap="round" stroke-linejoin="round" stroke-miterlimit="10" x1="664.5" y1="738.2" x2="673.638" y2="738.2"/>
	
		<line display="inline" fill="none" stroke="#0E1235" stroke-width="6" stroke-linecap="round" stroke-linejoin="round" stroke-miterlimit="10" x1="700" y1="738.2" x2="917.5" y2="738.2"/>
	<g display="inline">
		<g>
			<g>
				<path fill="#0E1235" d="M706.479,542.189c0,0-0.108,0.123-0.315,0.358c-0.215,0.229-0.565,0.536-1.058,0.861
					c-0.493,0.319-1.126,0.631-1.838,0.94c-0.704,0.312-1.513,0.615-2.208,1.024c-0.719,0.411-1.206,0.902-1.44,1.551
					c-0.261,0.669-0.299,1.687-0.394,3.019c-0.027,0.337-0.061,0.681-0.127,1.084c-0.07,0.433-0.189,0.849-0.338,1.266
					c-0.312,0.826-0.75,1.658-1.554,2.421c-0.402,0.374-0.907,0.735-1.547,0.959c-0.637,0.229-1.358,0.288-2.042,0.174
					c-1.432-0.254-2.442-1.191-3.036-2.113c-0.307-0.463-0.541-0.996-0.691-1.475c-0.148-0.476-0.242-0.938-0.303-1.366
					c-0.12-0.857-0.136-1.598-0.185-2.216c-0.064-1.218-0.397-2.056-0.697-2.279c-0.187-0.174-0.429-0.236-0.496-0.255
					c-0.061,0.004,0-0.068-0.147,0.018c-0.16,0.088-0.47,0.409-1.076,0.675c-0.599,0.265-1.348,0.258-1.887,0.059
					c-0.551-0.194-0.94-0.505-1.24-0.824c-0.586-0.647-0.894-1.382-0.967-2.18c-0.052-1.363,0.324-2.211,0.42-2.88
					c0.033-0.167,0.052-0.321,0.066-0.46c0.011-0.116,0.016-0.238,0.002-0.356c-0.021-0.239-0.085-0.463-0.167-0.641
					c-0.347-0.735-0.776-0.646-0.772-0.674c0.002,0.008,0.079-0.063,0.285-0.096c0.198-0.032,0.588,0.027,0.989,0.399
					c0.399,0.347,0.783,1.012,0.863,1.848c0.116,0.812,0.042,1.774,0.289,2.53c0.11,0.316,0.335,0.598,0.607,0.772
					c0.131,0.083,0.268,0.125,0.343,0.112c0.036-0.012,0.056-0.024,0.055-0.045c-0.002,0.009,0.003,0.049,0,0.025
					c0,0.007-0.002-0.012-0.017-0.056c-0.053-0.052,0.033-0.109,0.266-0.374c0.215-0.249,0.742-0.645,1.244-0.804
					c1.053-0.36,2.116-0.175,3.007,0.273c0.447,0.225,0.881,0.55,1.236,0.947c0.334,0.368,0.611,0.782,0.822,1.202
					c0.426,0.845,0.627,1.695,0.759,2.483c0.126,0.787,0.186,1.482,0.289,2.069c0.103,0.588,0.24,1.046,0.417,1.325
					c0.187,0.32,0.405,0.46,0.421,0.465c0.049,0.015,0.036,0.084,0.287-0.047c0.23-0.143,0.535-0.486,0.752-0.886
					c0.232-0.407,0.363-0.791,0.508-1.411c0.284-1.15,0.498-2.56,1.264-3.816c0.765-1.292,2.06-1.969,3.054-2.22
					c1.026-0.283,1.904-0.335,2.669-0.422c0.763-0.079,1.419-0.161,1.959-0.296c0.537-0.133,0.961-0.299,1.24-0.438
					C706.331,542.267,706.479,542.189,706.479,542.189z"/>
			</g>
		</g>
	</g>
	<g display="inline">
		<g>
			<g>
				<path fill="#0E1235" d="M736.845,590.551c-0.001,0.017-0.279-0.066-0.639,0.184c-0.178,0.119-0.39,0.331-0.544,0.625
					c-0.163,0.302-0.203,0.585-0.221,1.085c-0.014,0.477,0.058,1.074,0.095,1.869c0.033,0.786,0.006,1.887-0.555,3.033
					c-0.283,0.576-0.767,1.214-1.498,1.659c-0.712,0.437-1.683,0.648-2.526,0.503c-1.709-0.296-2.815-1.31-3.586-2.535
					c-0.768-1.372-0.849-2.488-0.973-3.461c-0.09-0.943-0.145-1.74-0.268-2.277c-0.057-0.261-0.134-0.46-0.179-0.567
					c-0.076-0.114,0.03-0.122-0.152-0.224c-0.188-0.102-0.627-0.183-1.164-0.42c-0.532-0.243-0.947-0.593-1.249-0.953
					c-0.604-0.726-0.836-1.479-0.941-2.109c-0.095-0.625-0.068-1.129-0.035-1.524c0.08-0.787,0.174-1.183,0.174-1.183
					s0.161,0.399,0.447,1.112c0.285,0.683,0.791,1.767,1.721,2.242c0.222,0.112,0.452,0.174,0.659,0.17
					c0.191,0.002,0.483-0.042,0.978-0.007c0.489,0.013,1.267,0.3,1.749,0.737c0.512,0.432,0.86,0.949,1.121,1.461
					c0.509,1.034,0.712,2.019,0.913,2.898c0.097,0.438,0.188,0.836,0.292,1.186c0.098,0.346,0.228,0.674,0.32,0.827
					c0.21,0.414,0.658,0.777,0.793,0.846c0.072,0.044,0.049,0.09,0.116,0.114c0.059,0.029,0.178,0.006,0.334-0.132
					c0.319-0.298,0.594-0.858,0.777-1.524c0.195-0.679,0.368-1.443,0.672-2.117c0.287-0.668,0.752-1.265,1.244-1.555
					c0.482-0.307,0.96-0.404,1.308-0.379C736.742,590.208,736.831,590.589,736.845,590.551z"/>
			</g>
		</g>
	</g>
	<g display="inline">
		<g>
			<g>
				<path fill="#0E1235" d="M635.221,594.815c0,0-0.084,0.204-0.245,0.595c-0.127,0.4-0.326,0.99-0.378,1.781
					c-0.065,0.783-0.011,1.758,0.298,2.813c0.33,1.042,0.906,2.18,1.853,3.076c0.484,0.45,0.99,0.808,1.682,1.143
					c0.682,0.342,1.492,0.651,2.389,1.069c0.884,0.427,1.926,0.94,2.849,1.961c0.948,0.993,1.457,2.562,1.487,3.814
					c0.075,1.289-0.091,2.409-0.143,3.408c-0.022,0.482-0.028,0.944,0.022,1.305c0.055,0.359,0.151,0.612,0.264,0.802
					c0.136,0.188,0.266,0.325,0.577,0.502c0.294,0.175,0.755,0.353,1.294,0.556c0.551,0.211,1.198,0.439,1.913,0.847
					c0.726,0.408,1.439,1.035,1.948,1.734c1.038,1.432,1.358,2.937,1.571,4.22c0.103,0.652,0.165,1.27,0.224,1.854
					c0.06,0.588,0.109,1.152,0.183,1.57c0.153,0.91,0.484,1.789,0.892,2.431c0.434,0.658,0.842,0.922,1.246,0.978
					c0.414,0.071,0.878-0.098,1.341-0.583c0.45-0.482,0.772-1.118,0.902-1.814c0.293-1.484-0.002-3.219-0.091-4.933
					c-0.096-1.723,0.08-3.465,0.831-4.853c0.347-0.675,0.884-1.285,1.451-1.673c0.565-0.389,1.148-0.602,1.686-0.71
					c1.085-0.225,1.994,0.051,2.5,0.371c0.255,0.161,0.43,0.311,0.532,0.425c0.104,0.11,0.158,0.167,0.158,0.167
					s-0.063-0.044-0.185-0.131c-0.117-0.09-0.313-0.199-0.573-0.303c-0.521-0.207-1.359-0.289-2.234,0.066
					c-0.87,0.331-1.792,1.09-2.158,2.257c-0.402,1.15-0.339,2.549-0.032,4.056c0.285,1.519,0.915,3.226,0.847,5.437
					c-0.038,1.107-0.386,2.356-1.121,3.419c-0.373,0.537-0.856,1.049-1.485,1.457c-0.621,0.408-1.417,0.699-2.238,0.724
					c-0.799,0.056-1.678-0.147-2.396-0.539c-0.727-0.388-1.307-0.923-1.771-1.488c-0.93-1.144-1.452-2.411-1.799-3.736
					c-0.084-0.332-0.151-0.672-0.207-1.017l-0.129-0.896c-0.08-0.583-0.154-1.143-0.243-1.673c-0.172-1.06-0.438-2.001-0.836-2.588
					c-0.196-0.299-0.416-0.508-0.683-0.697c-0.296-0.192-0.713-0.388-1.245-0.6c-0.525-0.216-1.144-0.447-1.824-0.829
					c-0.665-0.364-1.425-0.958-1.919-1.729c-0.516-0.746-0.796-1.635-0.868-2.387c-0.086-0.76-0.053-1.452,0.019-2.052
					c0.137-1.218,0.362-2.214,0.411-3.073c0.047-0.863-0.042-1.459-0.382-2.014c-0.35-0.556-0.98-1.077-1.714-1.544
					c-0.729-0.471-1.537-0.915-2.302-1.426c-0.769-0.507-1.498-1.155-2.034-1.836c-1.073-1.39-1.528-2.891-1.678-4.177
					c-0.141-1.297,0.042-2.397,0.297-3.229c0.247-0.841,0.612-1.406,0.841-1.776C635.082,594.997,635.221,594.815,635.221,594.815z"
					/>
			</g>
		</g>
	</g>
	<g display="inline">
		<g>
			<g>
				<path fill="#0E1235" d="M788.658,634.746c0,0-0.009,0.131-0.025,0.381c-0.015,0.247-0.031,0.613-0.006,1.058
					c0.029,0.434,0.11,0.981,0.341,1.366c0.115,0.191,0.254,0.31,0.416,0.382c0.146,0.073,0.357,0.109,0.787,0.188
					c0.212,0.04,0.47,0.089,0.775,0.185c0.306,0.094,0.674,0.269,0.996,0.502c0.658,0.47,1.124,1.181,1.377,1.874
					c0.265,0.702,0.365,1.407,0.382,2.111c0.014,0.733-0.077,1.37-0.132,1.934c-0.062,0.57-0.1,1.079-0.062,1.473
					c0.041,0.407,0.128,0.637,0.278,0.845c0.153,0.219,0.393,0.42,0.643,0.53c0.255,0.109,0.466,0.132,0.754,0.088
					c0.28-0.045,0.564-0.19,0.755-0.362c0.177-0.148,0.354-0.426,0.451-0.757c0.228-0.692,0.158-1.845,0.061-3.043
					c-0.044-0.606-0.089-1.24-0.082-1.901c0.002-0.67,0.08-1.359,0.232-1.988c0.294-1.269,0.884-2.405,1.663-3.252
					c0.765-0.854,1.761-1.391,2.612-1.605c0.867-0.23,1.647-0.199,2.253-0.078c0.609,0.134,1.046,0.349,1.316,0.528
					c0.271,0.176,0.396,0.287,0.396,0.287s-0.162-0.059-0.463-0.129c-0.299-0.072-0.751-0.121-1.284-0.061
					c-1.049,0.115-2.516,0.812-3.214,2.237c-0.358,0.702-0.558,1.541-0.568,2.441c-0.023,0.903,0.191,1.79,0.469,2.961
					c0.242,1.154,0.657,2.503,0.368,4.341c-0.164,0.917-0.562,1.881-1.298,2.698c-0.734,0.804-1.696,1.345-2.756,1.579
					c-1.048,0.244-2.248,0.117-3.212-0.344c-0.967-0.45-1.741-1.16-2.269-2.022c-0.542-0.866-0.757-1.926-0.732-2.757
					c0.017-0.852,0.185-1.546,0.34-2.146c0.158-0.593,0.321-1.121,0.408-1.524c0.089-0.431,0.125-0.85,0.099-1.21
					c-0.028-0.36-0.104-0.652-0.251-0.879c-0.129-0.23-0.395-0.417-0.816-0.62c-0.395-0.199-0.9-0.433-1.253-0.822
					c-0.357-0.37-0.544-0.816-0.613-1.207c-0.129-0.795,0.057-1.406,0.207-1.881c0.164-0.475,0.339-0.819,0.461-1.051
					C788.591,634.866,788.658,634.746,788.658,634.746z"/>
			</g>
		</g>
	</g>
	<g display="inline">
		<g>
			<g>
				<path fill="#0E1235" d="M714.004,661.716c0,0,0.088,0.119,0.256,0.345c0.144,0.24,0.362,0.615,0.5,1.151
					c0.294,1.068,0.184,2.702-0.572,4.404c-0.738,1.692-2.017,3.332-2.354,4.885c-0.168,0.724-0.108,1.554,0.045,2.703
					c0.115,1.128,0.438,2.526,0.031,4.345c-0.21,0.842-0.541,1.656-1.104,2.416c-0.54,0.749-1.392,1.472-2.467,1.789
					c-1.059,0.317-2.226,0.171-3.118-0.294c-0.885-0.463-1.487-1.115-1.916-1.772c-0.43-0.663-0.699-1.353-0.858-2.057
					c-0.147-0.715-0.167-1.309-0.158-1.883c0.029-1.132,0.18-2.043,0.237-2.825c0.165-1.507-0.171-2.636-0.603-3.274
					c-0.428-0.636-0.888-0.778-0.872-0.796c-0.012,0.033,0.471-0.132,1.306,0.345c0.817,0.461,1.816,1.745,2.166,3.576
					c0.385,1.741,0.441,3.928,1.486,4.891c0.246,0.257,0.527,0.446,0.733,0.492c0.207,0.055,0.314,0.008,0.429-0.053
					c0.091-0.05,0.218-0.161,0.393-0.404c0.165-0.249,0.335-0.605,0.434-1.003c0.111-0.413,0.141-0.739,0.142-1.293
					c0-0.522-0.035-1.098-0.061-1.718c-0.054-1.219-0.044-2.717,0.495-4.07c0.524-1.315,1.301-2.231,1.984-2.983
					c0.692-0.748,1.344-1.364,1.857-1.945c1.037-1.171,1.617-2.395,1.726-3.376c0.061-0.488,0.008-0.893-0.035-1.172
					C714.039,661.861,714.004,661.716,714.004,661.716z"/>
			</g>
		</g>
	</g>
	<g display="inline">
		<g>
			<g>
				<path fill="#0E1235" d="M793.848,674.026c0,0,0.183,0.121,0.487,0.374c0.303,0.256,0.733,0.642,1.185,1.245
					c0.443,0.604,0.929,1.437,1.121,2.6c0.179,1.118,0.062,2.591-0.915,3.908c-1.037,1.361-2.649,1.955-4.141,1.745
					c-0.755-0.117-1.43-0.419-1.972-0.929c-0.516-0.491-0.782-1.047-0.908-1.551c-0.252-1.018,0.024-1.859,0.349-2.312
					c0.156-0.23,0.318-0.375,0.43-0.458c0.113-0.08,0.173-0.122,0.173-0.122s-0.011,0.076-0.032,0.219
					c-0.017,0.137-0.027,0.34,0.019,0.566c0.067,0.453,0.402,0.979,0.873,1.259c0.23,0.141,0.495,0.22,0.702,0.185
					c0.18-0.04,0.375-0.124,0.524-0.23c0.307-0.208,0.608-0.528,0.773-0.762c0.233-0.287,0.537-0.757,0.752-1.365
					c0.223-0.584,0.344-1.309,0.409-1.975c0.065-0.669,0.089-1.28,0.117-1.71C793.828,674.276,793.848,674.026,793.848,674.026z"/>
			</g>
		</g>
	</g>
	<g display="inline">
		<g>
			<g>
				<path fill="#0E1235" d="M629.589,667.854c0,0,0.084,0.224,0.198,0.643c0.109,0.421,0.257,1.037,0.287,1.873
					c0.023,0.823-0.068,1.937-0.739,3.121c-0.757,1.276-2.144,2.306-4.008,2.413c-0.922,0.056-1.999-0.243-2.787-0.899
					c-0.797-0.648-1.219-1.542-1.361-2.311c-0.286-1.55,0.276-2.794,0.797-3.529c0.539-0.755,1.068-1.17,1.425-1.454
					c0.361-0.278,0.573-0.41,0.573-0.41s-0.008,0.278-0.051,0.755c-0.038,0.473-0.123,1.158-0.099,1.878
					c0.01,0.719,0.241,1.421,0.595,1.807c0.173,0.186,0.339,0.233,0.428,0.203c0.076-0.02,0.124-0.044,0.3-0.036
					c0.362,0.001,0.987-0.128,1.437-0.37c0.554-0.346,1.091-0.936,1.524-1.53c0.437-0.593,0.793-1.159,1.056-1.545
					C629.423,668.074,629.589,667.854,629.589,667.854z"/>
			</g>
		</g>
	</g>
	<g display="inline">
		<g>
			<g>
				<path fill="#0E1235" d="M559.143,674.755c0,0,0.016,0.207,0.013,0.577c-0.005,0.37-0.024,0.905-0.146,1.578
					c-0.126,0.669-0.351,1.495-0.877,2.375c-0.52,0.877-1.423,1.82-2.664,2.341c-1.243,0.545-2.767,0.582-4.024-0.037
					c-1.271-0.652-1.856-1.702-2.08-2.592c-0.228-0.907-0.045-1.696,0.188-2.138c0.125-0.225,0.233-0.377,0.325-0.471
					c0.086-0.092,0.131-0.14,0.131-0.14s0.01,0.071,0.029,0.205c0.013,0.127,0.06,0.314,0.132,0.517
					c0.15,0.415,0.515,0.872,0.994,1.151c0.464,0.29,1.085,0.416,1.461,0.306c0.377-0.116,0.767-0.264,1.252-0.47
					c0.504-0.211,1.037-0.43,1.611-0.768c0.581-0.337,1.18-0.76,1.719-1.144c0.539-0.386,1.021-0.724,1.37-0.948
					C558.927,674.87,559.143,674.755,559.143,674.755z"/>
			</g>
		</g>
	</g>
	<g display="inline">
		<g>
			<g>
				<path fill="#0E1235" d="M725.356,541.666c0,0,0.095,0.155,0.289,0.372c0.189,0.216,0.495,0.478,0.879,0.67
					c0.381,0.191,0.849,0.302,1.209,0.253c0.335-0.051,0.629-0.176,0.987-0.385c0.351-0.213,0.621-0.446,0.823-0.714
					c0.207-0.293,0.33-0.775,0.313-1.215c-0.01-0.442-0.124-0.849-0.249-1.121c-0.125-0.274-0.235-0.431-0.235-0.431
					s0.206-0.081,0.615-0.064c0.403,0.017,1.027,0.176,1.651,0.708c0.606,0.522,1.216,1.451,1.221,2.741
					c0.016,1.306-0.765,2.725-2.011,3.485c-1.231,0.786-2.856,0.844-4,0.254c-1.137-0.569-1.691-1.511-1.895-2.269
					c-0.202-0.782-0.075-1.401,0.082-1.765c0.08-0.185,0.159-0.313,0.223-0.396C725.323,541.708,725.356,541.666,725.356,541.666z"
					/>
			</g>
		</g>
	</g>
	<g display="inline">
		<g>
			<g>
				<path fill="#0E1235" d="M658.468,542.267c0,0-0.015,0.246-0.093,0.682c-0.079,0.436-0.224,1.065-0.51,1.815
					c-0.287,0.747-0.714,1.617-1.343,2.494c-0.328,0.45-0.643,0.853-1.122,1.328c-0.503,0.458-1.13,1.021-2.302,1.277
					c-0.581,0.121-1.27,0.08-1.89-0.159c-0.623-0.244-1.123-0.659-1.451-1.09c-0.66-0.878-0.837-1.778-0.794-2.652
					c0.174-1.612,0.903-2.424,1.316-3.026c0.451-0.584,0.756-0.992,0.93-1.315c0.174-0.317,0.234-0.523,0.234-0.523
					s0.193,0.152,0.388,0.581c0.201,0.421,0.325,1.155,0.307,1.993c-0.011,0.817-0.057,1.762,0.199,2.222
					c0.108,0.152,0.286,0.3,0.352,0.257c-0.165,0.126-0.297,0.317-0.307,0.36l-0.005,0.013c-0.02,0.082,0.028-0.111,0.023-0.091h0
					l0,0l0,0.001l-0.001,0.003c-0.001,0.005-0.001,0.007,0.001-0.008c0.001-0.013,0.009-0.13-0.017-0.255
					c-0.007-0.082-0.038-0.175-0.05-0.236c0,0,0.006,0.003,0.019-0.001c0.021-0.002,0.063-0.015,0.115-0.033
					c0.106-0.04,0.254-0.111,0.417-0.203c0.396-0.248,0.778-0.487,1.144-0.716c0.811-0.496,1.547-0.947,2.174-1.33
					C657.576,542.813,658.468,542.267,658.468,542.267z"/>
			</g>
		</g>
	</g>
	<g display="inline">
		<g>
			<path fill="#0E1235" d="M852.5,679.867c2.574,0,2.578-4,0-4C849.926,675.867,849.922,679.867,852.5,679.867L852.5,679.867z"/>
		</g>
	</g>
	<g display="inline">
		<g>
			<path fill="#0E1235" d="M843.333,675.2c2.574,0,2.578-4,0-4C840.76,671.2,840.755,675.2,843.333,675.2L843.333,675.2z"/>
		</g>
	</g>
	<g display="inline">
		<g>
			<path fill="#0E1235" d="M842.667,684.7c2.574,0,2.578-4,0-4C840.093,680.7,840.089,684.7,842.667,684.7L842.667,684.7z"/>
		</g>
	</g>
	<g display="inline">
		<g>
			<path fill="#0E1235" d="M696.5,578.533c2.574,0,2.578-4,0-4C693.926,574.533,693.922,578.533,696.5,578.533L696.5,578.533z"/>
		</g>
	</g>
	<g display="inline">
		<g>
			<path fill="#0E1235" d="M696.167,590.533c2.574,0,2.578-4,0-4C693.593,586.533,693.589,590.533,696.167,590.533L696.167,590.533z
				"/>
		</g>
	</g>
	<g display="inline">
		<g>
			<path fill="#0E1235" d="M705.5,587.033c2.574,0,2.578-4,0-4C702.926,583.033,702.922,587.033,705.5,587.033L705.5,587.033z"/>
		</g>
	</g>
	<g display="inline">
		<g>
			<path fill="#0E1235" d="M639.5,651.367c2.574,0,2.578-4,0-4C636.926,647.367,636.922,651.367,639.5,651.367L639.5,651.367z"/>
		</g>
	</g>
	<g display="inline">
		<g>
			<path fill="#0E1235" d="M631,656.867c2.574,0,2.578-4,0-4C628.426,652.867,628.422,656.867,631,656.867L631,656.867z"/>
		</g>
	</g>
	<g display="inline">
		<g>
			<path fill="#0E1235" d="M639,661.867c2.574,0,2.578-4,0-4C636.426,657.867,636.422,661.867,639,661.867L639,661.867z"/>
		</g>
	</g>
	<g display="inline">
		<g>
			<path fill="#0E1235" d="M562.75,660.617c2.574,0,2.578-4,0-4C560.176,656.617,560.172,660.617,562.75,660.617L562.75,660.617z"/>
		</g>
	</g>
	<g display="inline">
		<g>
			<path fill="#0E1235" d="M707.833,650.033c2.574,0,2.578-4,0-4C705.26,646.033,705.255,650.033,707.833,650.033L707.833,650.033z"
				/>
		</g>
	</g>
	<g display="inline">
		<g>
			<path fill="#0E1235" d="M715.667,656.367c2.574,0,2.578-4,0-4C713.093,652.367,713.089,656.367,715.667,656.367L715.667,656.367z
				"/>
		</g>
	</g>
	<g display="inline">
		<g>
			<path fill="#0E1235" d="M718.5,647.2c2.574,0,2.578-4,0-4C715.926,643.2,715.922,647.2,718.5,647.2L718.5,647.2z"/>
		</g>
	</g>
	<g display="inline">
		<g>
			<path fill="#0E1235" d="M779.5,667.367c2.574,0,2.578-4,0-4C776.926,663.367,776.922,667.367,779.5,667.367L779.5,667.367z"/>
		</g>
	</g>
	<g display="inline">
		<g>
			<path fill="#0E1235" d="M746.5,537.2c2.574,0,2.578-4,0-4C743.926,533.2,743.922,537.2,746.5,537.2L746.5,537.2z"/>
		</g>
	</g>
	<g display="inline">
		<g>
			<path fill="#0E1235" d="M616.833,594.2c2.574,0,2.578-4,0-4C614.26,590.2,614.255,594.2,616.833,594.2L616.833,594.2z"/>
		</g>
	</g>
	<g display="inline">
		<g>
			<path fill="#0E1235" d="M667,531.867c2.574,0,2.578-4,0-4C664.426,527.867,664.422,531.867,667,531.867L667,531.867z"/>
		</g>
	</g>
	<g display="inline">
		<g>
			<path fill="#0E1235" d="M773.833,580.867c2.574,0,2.578-4,0-4C771.26,576.867,771.255,580.867,773.833,580.867L773.833,580.867z"
				/>
		</g>
	</g>
	<g display="inline">
		<g>
			<g>
				<path fill="#0E1235" d="M579.435,600.04c-1.079-1.149-2.093-2.359-3.053-3.609l-1.855,1.415l-1.855,1.415
					c1.054,1.374,2.169,2.702,3.354,3.965c0,0,1.084,1.185,2.77,2.352c1.672,1.179,3.966,2.277,6.016,2.319
					c-0.68-1.934-2.076-3.813-3.234-5.308C580.41,601.108,579.435,600.04,579.435,600.04z"/>
			</g>
		</g>
	</g>
	<g display="inline">
		<g>
			<g>
				<path fill="#0E1235" d="M766.654,528.359c1.102-1.118,2.151-2.287,3.155-3.494l-1.797-1.488l-1.797-1.488
					c-0.92,1.104-1.88,2.176-2.89,3.199c0,0-0.915,0.95-1.981,2.305c-1.059,1.365-2.307,3.113-2.855,4.959
					c1.925,0.04,4.043-0.905,5.594-1.929C765.644,529.406,766.654,528.359,766.654,528.359z"/>
			</g>
		</g>
	</g>
	<g display="inline">
		<g>
			<g>
				<path fill="#0E1235" d="M837.204,620.401c1.461-1.542,2.843-3.159,4.157-4.829l-1.838-1.438l-1.838-1.438
					c-1.225,1.556-2.512,3.064-3.875,4.501c0,0-1.235,1.337-2.75,3.142c-1.504,1.821-3.338,4.073-4.327,6.254
					c2.376-0.303,5.1-1.769,7.11-3.265C835.867,621.846,837.204,620.401,837.204,620.401z"/>
			</g>
		</g>
	</g>
	
		<rect x="502.5" y="755.867" display="inline" fill="none" stroke="#0E1235" stroke-width="8" stroke-miterlimit="10" width="32" height="176"/>
	<g display="inline">
		
			<line fill="none" stroke="#0E1235" stroke-width="4" stroke-linecap="round" stroke-linejoin="round" stroke-miterlimit="10" x1="502.5" y1="775.076" x2="534.5" y2="775.076"/>
		
			<line fill="none" stroke="#0E1235" stroke-width="4" stroke-linecap="round" stroke-linejoin="round" stroke-miterlimit="10" x1="502.5" y1="802.593" x2="534.5" y2="802.593"/>
		
			<line fill="none" stroke="#0E1235" stroke-width="4" stroke-linecap="round" stroke-linejoin="round" stroke-miterlimit="10" x1="502.5" y1="830.109" x2="534.5" y2="830.109"/>
		
			<line fill="none" stroke="#0E1235" stroke-width="4" stroke-linecap="round" stroke-linejoin="round" stroke-miterlimit="10" x1="502.5" y1="857.625" x2="534.5" y2="857.625"/>
		
			<line fill="none" stroke="#0E1235" stroke-width="4" stroke-linecap="round" stroke-linejoin="round" stroke-miterlimit="10" x1="502.5" y1="885.141" x2="534.5" y2="885.141"/>
		
			<line fill="none" stroke="#0E1235" stroke-width="4" stroke-linecap="round" stroke-linejoin="round" stroke-miterlimit="10" x1="502.5" y1="912.657" x2="534.5" y2="912.657"/>
	</g>
	
		<rect x="865.5" y="755.867" transform="matrix(-1 -4.490642e-11 4.490642e-11 -1 1763 1687.7333)" display="inline" fill="none" stroke="#0E1235" stroke-width="8" stroke-miterlimit="10" width="32" height="176"/>
	<g display="inline">
		
			<line fill="none" stroke="#0E1235" stroke-width="4" stroke-linecap="round" stroke-linejoin="round" stroke-miterlimit="10" x1="897.5" y1="775.076" x2="865.5" y2="775.076"/>
		
			<line fill="none" stroke="#0E1235" stroke-width="4" stroke-linecap="round" stroke-linejoin="round" stroke-miterlimit="10" x1="897.5" y1="802.593" x2="865.5" y2="802.593"/>
		
			<line fill="none" stroke="#0E1235" stroke-width="4" stroke-linecap="round" stroke-linejoin="round" stroke-miterlimit="10" x1="897.5" y1="830.109" x2="865.5" y2="830.109"/>
		
			<line fill="none" stroke="#0E1235" stroke-width="4" stroke-linecap="round" stroke-linejoin="round" stroke-miterlimit="10" x1="897.5" y1="857.625" x2="865.5" y2="857.625"/>
		
			<line fill="none" stroke="#0E1235" stroke-width="4" stroke-linecap="round" stroke-linejoin="round" stroke-miterlimit="10" x1="897.5" y1="885.141" x2="865.5" y2="885.141"/>
		
			<line fill="none" stroke="#0E1235" stroke-width="4" stroke-linecap="round" stroke-linejoin="round" stroke-miterlimit="10" x1="897.5" y1="912.657" x2="865.5" y2="912.657"/>
	</g>
	<path display="inline" fill="none" stroke="#0E1235" stroke-width="8" stroke-miterlimit="10" d="M554.46,619.587v-126.22
		c0-5.247,4.253-9.5,9.5-9.5h46.54c5.247,0,9.5,4.253,9.5,9.5v45.29"/>
	
		<line display="inline" fill="none" stroke="#0E1235" stroke-width="4" stroke-linecap="round" stroke-linejoin="round" stroke-miterlimit="10" x1="554.46" y1="503.565" x2="620" y2="503.565"/>
	
		<line display="inline" fill="none" stroke="#0E1235" stroke-width="4" stroke-linecap="round" stroke-linejoin="round" stroke-miterlimit="10" x1="554.46" y1="518.374" x2="620" y2="518.374"/>
	
		<line display="inline" fill="none" stroke="#0E1235" stroke-width="4" stroke-linecap="round" stroke-linejoin="round" stroke-miterlimit="10" x1="554.46" y1="533.183" x2="620" y2="533.183"/>
	
		<line display="inline" fill="none" stroke="#0E1235" stroke-width="4" stroke-linecap="round" stroke-linejoin="round" stroke-miterlimit="10" x1="554.46" y1="547.992" x2="610.833" y2="547.992"/>
	
		<line display="inline" fill="none" stroke="#0E1235" stroke-width="4" stroke-linecap="round" stroke-linejoin="round" stroke-miterlimit="10" x1="554.46" y1="562.802" x2="598.404" y2="562.802"/>
	
		<line display="inline" fill="none" stroke="#0E1235" stroke-width="4" stroke-linecap="round" stroke-linejoin="round" stroke-miterlimit="10" x1="554.46" y1="577.611" x2="587.23" y2="577.611"/>
	
		<line display="inline" fill="none" stroke="#0E1235" stroke-width="4" stroke-linecap="round" stroke-linejoin="round" stroke-miterlimit="10" x1="554.46" y1="592.42" x2="576.167" y2="592.42"/>
	
		<line display="inline" fill="none" stroke="#0E1235" stroke-width="4" stroke-linecap="round" stroke-linejoin="round" stroke-miterlimit="10" x1="576.432" y1="483.867" x2="576.432" y2="503.565"/>
	
		<line display="inline" fill="none" stroke="#0E1235" stroke-width="4" stroke-linecap="round" stroke-linejoin="round" stroke-miterlimit="10" x1="598.404" y1="533.183" x2="598.404" y2="547.992"/>
	
		<line display="inline" fill="none" stroke="#0E1235" stroke-width="4" stroke-linecap="round" stroke-linejoin="round" stroke-miterlimit="10" x1="574.527" y1="562.802" x2="574.527" y2="577.611"/>
	
		<line display="inline" fill="none" stroke="#0E1235" stroke-width="4" stroke-linecap="round" stroke-linejoin="round" stroke-miterlimit="10" x1="582.647" y1="518.374" x2="582.647" y2="533.183"/>
	
		<line display="inline" fill="none" stroke="#0E1235" stroke-width="4" stroke-linecap="round" stroke-linejoin="round" stroke-miterlimit="10" x1="605" y1="483.867" x2="605" y2="503.565"/>
	<path display="inline" fill="none" stroke="#0E1235" stroke-width="8" stroke-miterlimit="10" d="M913,950.867H487
		c-2.485,0-4.5-2.015-4.5-4.5v-10c0-2.485,2.015-4.5,4.5-4.5h426c2.485,0,4.5,2.015,4.5,4.5v10
		C917.5,948.852,915.485,950.867,913,950.867z"/>
	<g display="inline">
		<g>
			<path fill="#0E1235" d="M512.167,796.033c1.93,0,1.934-3,0-3C510.236,793.033,510.233,796.033,512.167,796.033L512.167,796.033z"
				/>
		</g>
	</g>
	<g display="inline">
		<g>
			<path fill="#0E1235" d="M526.167,852.367c1.93,0,1.934-3,0-3C524.236,849.367,524.233,852.367,526.167,852.367L526.167,852.367z"
				/>
		</g>
	</g>
	<g display="inline">
		<g>
			<path fill="#0E1235" d="M523.833,847.033c1.93,0,1.934-3,0-3C521.903,844.033,521.9,847.033,523.833,847.033L523.833,847.033z"/>
		</g>
	</g>
	<g display="inline">
		<g>
			<path fill="#0E1235" d="M520.5,851.033c1.93,0,1.934-3,0-3C518.57,848.033,518.566,851.033,520.5,851.033L520.5,851.033z"/>
		</g>
	</g>
	<g display="inline">
		<g>
			<path fill="#0E1235" d="M874.5,907.617c1.93,0,1.934-3,0-3C872.57,904.617,872.566,907.617,874.5,907.617L874.5,907.617z"/>
		</g>
	</g>
	<g display="inline">
		<g>
			<path fill="#0E1235" d="M887.75,824.867c1.93,0,1.934-3,0-3C885.82,821.867,885.816,824.867,887.75,824.867L887.75,824.867z"/>
		</g>
	</g>
	<g display="inline">
		<g>
			<path fill="#0E1235" d="M887.25,819.367c1.93,0,1.934-3,0-3C885.32,816.367,885.316,819.367,887.25,819.367L887.25,819.367z"/>
		</g>
	</g>
	<g display="inline">
		<g>
			<path fill="#0E1235" d="M881.5,822.367c1.93,0,1.934-3,0-3C879.57,819.367,879.566,822.367,881.5,822.367L881.5,822.367z"/>
		</g>
	</g>
	<g display="inline">
		<g>
			<path fill="#0E1235" d="M875.833,768.033c1.93,0,1.934-3,0-3C873.903,765.033,873.9,768.033,875.833,768.033L875.833,768.033z"/>
		</g>
	</g>
</g>
<g id="Layer_5">
	<path fill="#48A146" d="M765.216,467.127c-0.274-0.07-0.554-0.104-0.83-0.104c-0.6,0-1.19,0.161-1.719,0.476
		c-0.771,0.461-1.318,1.194-1.538,2.066l-5.776,22.839c-0.22,0.872-0.089,1.776,0.371,2.549c0.46,0.772,1.195,1.319,2.067,1.539
		c0.871,0.222,1.776,0.089,2.547-0.372c0.772-0.46,1.32-1.194,1.54-2.066l5.774-22.838
		C768.108,469.415,767.015,467.581,765.216,467.127z"/>
	<rect x="495.438" y="343.045" fill="#B25420" width="41.34" height="23.049"/>
	<path fill="#48A146" d="M710.239,580.095c0.868,0.234,1.773,0.113,2.554-0.336c1.607-0.928,2.159-2.99,1.232-4.598l-11.779-20.401
		c-0.45-0.779-1.175-1.335-2.043-1.568c-0.289-0.078-0.584-0.117-0.876-0.117c-0.583,0-1.159,0.154-1.678,0.453
		c-1.607,0.928-2.16,2.99-1.232,4.597l11.78,20.402C708.647,579.306,709.371,579.863,710.239,580.095z"/>
	<path fill="#B25420" d="M558.654,352.3c0-5.103-4.152-9.255-9.255-9.255h-5.889v23.049h15.144V352.3z"/>
	<path fill="#48A146" d="M500.178,645.508l20.401,11.779c0.778,0.449,1.686,0.569,2.554,0.336c0.868-0.233,1.593-0.789,2.043-1.567
		c0.928-1.608,0.375-3.671-1.232-4.599l-20.401-11.779c-0.518-0.299-1.094-0.452-1.677-0.452c-0.292,0-0.587,0.038-0.877,0.116
		c-0.868,0.233-1.595,0.79-2.044,1.568C498.018,642.518,498.571,644.581,500.178,645.508z"/>
	<path fill="#B25420" d="M488.708,343.045h-17.621c-5.103,0-9.255,4.152-9.255,9.255v13.794h26.876V343.045z"/>
	<path fill="#E53722" d="M776.671,617.187c-10.957,0-19.872,8.914-19.872,19.871s8.915,19.871,19.872,19.871
		s19.87-8.914,19.87-19.871S787.628,617.187,776.671,617.187z"/>
	<path fill="#EFD2C0" d="M616.301,487.433c-3.087,4.757-3.54,9.897-1.349,15.275c1.663,4.082,3.171,5.115,3.612,5.169
		c1.024,0.143,3.273-1.738,4.452-3.361c0.958-1.318,2.491-2.09,4.097-2.09c0.219,0,0.44,0.014,0.661,0.044
		c1.836,0.245,3.4,1.465,4.059,3.197l2.902,7.624l7.077-2.693l-2.902-7.624c-0.663-1.741-0.313-3.706,0.91-5.111
		c1.223-1.406,3.124-2.023,4.936-1.605c1.937,0.419,4.854,0.316,5.535-0.456c0.293-0.334,0.733-2.108-0.739-6.262
		c-1.94-5.474-5.696-9.012-11.165-10.513c-3.581-0.984-7.452-0.751-11.193,0.675c0,0,0,0-0.001,0l-2.084,0.793
		C621.368,481.918,618.321,484.317,616.301,487.433z"/>
	<path fill="#F5CD00" d="M479.902,563.466c1.754-2.166,4.932-2.502,7.1-0.746c2.167,1.755,2.5,4.934,0.746,7.101l-92.973,114.811
		h610.45l-61.424-75.85c-1.755-2.167-1.421-5.346,0.746-7.101c2.163-1.756,5.344-1.421,7.099,0.746l66.57,82.205h15.149
		l-99.083-122.354c-1.109,1.285-2.242,2.55-3.41,3.783c0,0-2.249,2.43-5.655,4.926c-3.381,2.518-7.966,4.985-11.963,5.495
		c1.664-3.67,4.75-7.46,7.281-10.523c2.549-3.038,4.627-5.287,4.627-5.287c1.413-1.491,2.763-3.039,4.085-4.61L812.029,411.311
		c-0.426,0.422-1.973,1.894-4.197,3.342c-2.61,1.724-6.172,3.313-9.412,3.247c0.924-3.106,3.022-6.047,4.805-8.344
		c1.794-2.279,3.334-3.878,3.334-3.878c0.167-0.169,0.323-0.348,0.489-0.519l-91.703-113.241c-3.766-4.65-9.358-7.318-15.344-7.318
		c-5.984,0-11.577,2.668-15.343,7.318L493.647,527.788c1.12,1.371,2.266,2.719,3.478,4.01c0,0,1.642,1.797,3.605,4.291
		c1.949,2.516,4.297,5.678,5.441,8.932c-3.448-0.072-7.31-1.919-10.123-3.903c-2.836-1.964-4.66-3.958-4.66-3.958
		c-0.958-1.021-1.885-2.069-2.79-3.137L366.635,684.632h15.148L479.902,563.466z M462.758,661.145
		c-0.212,1.126-0.59,2.516-1.476,3.997c-0.875,1.475-2.394,3.063-4.483,3.94c-2.091,0.916-4.656,0.98-6.771-0.063
		c-2.138-1.097-3.123-2.863-3.5-4.362c-0.384-1.527-0.076-2.853,0.316-3.597c0.21-0.378,0.392-0.635,0.546-0.792
		c0.144-0.154,0.22-0.236,0.22-0.236s0.017,0.12,0.048,0.345c0.021,0.213,0.101,0.528,0.222,0.87
		c0.252,0.699,0.866,1.468,1.673,1.936c0.78,0.488,1.826,0.701,2.459,0.514c0.634-0.196,1.29-0.445,2.107-0.79
		c0.848-0.355,1.744-0.724,2.712-1.293c0.977-0.568,1.985-1.279,2.893-1.925c0.907-0.65,1.718-1.219,2.306-1.596
		c0.588-0.38,0.952-0.574,0.952-0.574s0.027,0.348,0.022,0.971C462.996,659.114,462.962,660.013,462.758,661.145z M469.05,633.73
		c-4.338,0-4.331-6.731,0-6.731C473.388,626.999,473.381,633.73,469.05,633.73z M956.611,659.391c4.338,0,4.331,6.731,0,6.731
		C952.273,666.122,952.28,659.391,956.611,659.391z M941.186,651.539c4.338,0,4.331,6.731,0,6.731
		C936.848,658.269,936.855,651.539,941.186,651.539z M940.064,667.524c4.338,0,4.331,6.731,0,6.731
		C935.726,674.255,935.733,667.524,940.064,667.524z M525.841,580.67c0-16.524,13.443-29.967,29.967-29.967
		c16.525,0,29.968,13.443,29.968,29.967c0,16.525-13.443,29.968-29.968,29.968C539.285,610.638,525.841,597.195,525.841,580.67z
		 M560.056,515.24c4.338,0,4.331,6.731,0,6.731C555.718,521.971,555.725,515.24,560.056,515.24z M581.094,655.393
		c-1.274,2.147-3.608,3.88-6.745,4.061c-1.552,0.093-3.363-0.409-4.69-1.513c-1.341-1.091-2.051-2.594-2.29-3.888
		c-0.481-2.607,0.464-4.701,1.341-5.938c0.907-1.27,1.797-1.969,2.397-2.446c0.608-0.467,0.963-0.69,0.963-0.69
		s-0.013,0.468-0.087,1.271c-0.065,0.795-0.207,1.949-0.167,3.159c0.017,1.209,0.405,2.391,1.001,3.041
		c0.291,0.314,0.57,0.392,0.72,0.342c0.127-0.033,0.209-0.074,0.505-0.06c0.61,0.002,1.66-0.215,2.419-0.623
		c0.933-0.582,1.836-1.574,2.565-2.574c0.735-0.998,1.334-1.95,1.777-2.6c0.438-0.656,0.717-1.025,0.717-1.025
		s0.142,0.377,0.333,1.081c0.184,0.708,0.432,1.744,0.483,3.151C582.375,651.526,582.221,653.401,581.094,655.393z M583.894,627.42
		c-4.338,0-4.331-6.731,0-6.731C588.232,620.689,588.225,627.42,583.894,627.42z M597.356,635.833c-4.338,0-4.331-6.731,0-6.731
		C601.694,629.102,601.687,635.833,597.356,635.833z M598.197,618.165c-4.338,0-4.331-6.731,0-6.731
		C602.535,611.434,602.528,618.165,598.197,618.165z M614.707,580.341c-0.142-0.559-0.254-1.131-0.348-1.711l-0.217-1.508
		c-0.134-0.981-0.258-1.923-0.409-2.816c-0.29-1.784-0.737-3.368-1.407-4.355c-0.329-0.503-0.7-0.855-1.149-1.173
		c-0.499-0.324-1.199-0.652-2.096-1.01c-0.883-0.364-1.925-0.752-3.069-1.395c-1.119-0.613-2.398-1.612-3.229-2.91
		c-0.869-1.255-1.339-2.751-1.461-4.016c-0.145-1.279-0.09-2.444,0.031-3.453c0.231-2.05,0.609-3.725,0.692-5.171
		c0.079-1.452-0.071-2.455-0.642-3.388c-0.588-0.935-1.649-1.812-2.884-2.598c-1.226-0.793-2.586-1.54-3.874-2.4
		c-1.294-0.854-2.52-1.944-3.422-3.09c-1.806-2.339-2.572-4.865-2.824-7.028c-0.238-2.182,0.07-4.034,0.499-5.433
		c0.416-1.415,1.029-2.365,1.416-2.989c0.447-0.584,0.682-0.891,0.682-0.891s-0.142,0.344-0.413,1.001
		c-0.214,0.674-0.549,1.665-0.637,2.996c-0.109,1.317-0.018,2.958,0.501,4.734c0.555,1.753,1.524,3.668,3.118,5.177
		c0.815,0.757,1.665,1.36,2.83,1.924c1.148,0.575,2.511,1.095,4.019,1.798c1.487,0.718,3.24,1.581,4.794,3.3
		c1.595,1.672,2.452,4.312,2.502,6.418c0.125,2.169-0.154,4.054-0.241,5.734c-0.036,0.812-0.047,1.588,0.037,2.196
		c0.092,0.604,0.253,1.03,0.445,1.349c0.228,0.317,0.447,0.547,0.97,0.844c0.494,0.295,1.271,0.594,2.178,0.935
		c0.926,0.356,2.016,0.739,3.219,1.426c1.222,0.686,2.421,1.742,3.279,2.917c1.747,2.41,2.285,4.942,2.644,7.101
		c0.173,1.096,0.278,2.136,0.377,3.12c0.1,0.99,0.183,1.938,0.309,2.641c0.257,1.532,0.814,3.011,1.501,4.091
		c0.73,1.107,1.417,1.551,2.096,1.645c0.696,0.12,1.477-0.165,2.256-0.982c0.758-0.81,1.3-1.881,1.518-3.052
		c0.493-2.498-0.004-5.417-0.154-8.3c-0.162-2.899,0.134-5.831,1.398-8.166c0.583-1.137,1.487-2.163,2.442-2.815
		c0.951-0.654,1.932-1.013,2.838-1.195c1.825-0.378,3.356,0.086,4.207,0.625c0.429,0.271,0.724,0.523,0.895,0.715
		c0.176,0.186,0.266,0.281,0.266,0.281s-0.106-0.075-0.312-0.221c-0.197-0.151-0.527-0.334-0.964-0.509
		c-0.876-0.348-2.286-0.485-3.758,0.111c-1.464,0.557-3.016,1.833-3.632,3.797c-0.676,1.936-0.571,4.289-0.054,6.825
		c0.48,2.556,1.54,5.428,1.425,9.148c-0.065,1.862-0.65,3.964-1.886,5.753c-0.627,0.903-1.441,1.765-2.499,2.452
		c-1.045,0.687-2.385,1.176-3.766,1.219c-1.345,0.095-2.824-0.248-4.032-0.907c-1.223-0.653-2.198-1.552-2.981-2.504
		C616.17,584.702,615.291,582.571,614.707,580.341z M673.148,651.338c-2.963,6.928-6.999,10.69-11.997,11.182
		c-2.883,0.283-5.456-0.629-7.572-1.921l-2.182,5.446c-0.498,1.242-1.469,2.236-2.7,2.764c-0.633,0.271-1.31,0.407-1.986,0.407
		c-0.637,0-1.274-0.121-1.877-0.362l-16.401-6.571c-1.242-0.497-2.237-1.468-2.763-2.7c-0.527-1.231-0.543-2.62-0.045-3.863
		l2.181-5.445c-2.425-0.527-4.917-1.644-6.806-3.839c-3.275-3.807-3.598-9.315-0.958-16.373c3.213-8.591,9.541-14.319,18.297-16.561
		c5.688-1.457,11.72-1.015,17.439,1.276l2.07,0.83c5.721,2.292,10.389,6.137,13.498,11.117
		C676.132,634.392,676.755,642.903,673.148,651.338z M700,424.346c-16.524,0-29.967-13.443-29.967-29.967
		c0-16.525,13.443-29.968,29.967-29.968c16.525,0,29.968,13.443,29.968,29.968C729.968,410.903,716.525,424.346,700,424.346z
		 M709.255,509.912c-4.338,0-4.331-6.731,0-6.731C713.593,503.181,713.586,509.912,709.255,509.912z M684.153,453.876
		c-0.517-0.779-0.91-1.677-1.164-2.482c-0.25-0.801-0.407-1.579-0.509-2.299c-0.202-1.443-0.228-2.69-0.312-3.728
		c-0.108-2.05-0.669-3.459-1.172-3.834c-0.314-0.294-0.722-0.396-0.835-0.43c-0.103,0.007-0.001-0.114-0.248,0.03
		c-0.27,0.148-0.79,0.688-1.81,1.136c-1.008,0.447-2.268,0.435-3.175,0.099c-0.927-0.326-1.582-0.849-2.087-1.386
		c-0.987-1.089-1.504-2.326-1.627-3.668c-0.087-2.293,0.545-3.721,0.707-4.846c0.056-0.281,0.087-0.54,0.112-0.774
		c0.018-0.195,0.027-0.4,0.003-0.6c-0.036-0.402-0.144-0.779-0.28-1.079c-0.583-1.236-1.305-1.088-1.298-1.135
		c0.003,0.014,0.133-0.106,0.48-0.162c0.333-0.055,0.989,0.045,1.664,0.672c0.671,0.584,1.317,1.702,1.452,3.109
		c0.195,1.366,0.07,2.984,0.486,4.257c0.185,0.531,0.564,1.007,1.022,1.299c0.22,0.139,0.451,0.211,0.577,0.188
		c0.054-0.017,0.077-0.038,0.083-0.068c-0.003-0.012-0.002-0.013-0.018-0.061c-0.089-0.088,0.055-0.183,0.447-0.629
		c0.362-0.419,1.249-1.085,2.094-1.354c1.771-0.606,3.561-0.294,5.06,0.46c0.752,0.379,1.482,0.926,2.079,1.594
		c0.562,0.619,1.028,1.316,1.383,2.022c0.716,1.422,1.055,2.853,1.276,4.178c0.212,1.325,0.313,2.494,0.486,3.482
		c0.173,0.989,0.404,1.761,0.702,2.23c0.314,0.538,0.682,0.773,0.708,0.782c0.083,0.026,0.06,0.142,0.483-0.079
		c0.387-0.24,0.901-0.818,1.266-1.49c0.391-0.686,0.61-1.331,0.855-2.374c0.477-1.936,0.838-4.308,2.127-6.421
		c1.286-2.175,3.467-3.313,5.138-3.735c1.726-0.476,3.205-0.564,4.491-0.71c1.285-0.133,2.388-0.272,3.297-0.498
		c0.904-0.225,1.616-0.503,2.087-0.737c0.473-0.252,0.721-0.384,0.721-0.384s-0.182,0.207-0.531,0.602
		c-0.362,0.385-0.952,0.902-1.781,1.449c-0.829,0.537-1.895,1.063-3.094,1.582c-1.185,0.525-2.545,1.035-3.715,1.724
		c-1.209,0.691-2.029,1.518-2.422,2.609c-0.44,1.125-0.503,2.839-0.663,5.081c-0.046,0.567-0.102,1.146-0.214,1.824
		c-0.117,0.728-0.319,1.428-0.568,2.13c-0.525,1.389-1.261,2.789-2.615,4.074c-0.676,0.63-1.526,1.237-2.603,1.613
		c-1.072,0.385-2.286,0.484-3.435,0.293C686.852,457.004,685.152,455.427,684.153,453.876z M694.111,495.609
		c-4.338,0-4.331-6.731,0-6.731C698.449,488.878,698.441,495.609,694.111,495.609z M693.55,515.801c-4.338,0-4.331-6.731,0-6.731
		C697.888,509.07,697.881,515.801,693.55,515.801z M689.131,562.332c-3.247-5.624-1.313-12.842,4.312-16.09
		c2.725-1.572,5.898-1.991,8.939-1.177c3.038,0.814,5.579,2.763,7.151,5.488l11.779,20.401c3.247,5.625,1.311,12.843-4.312,16.09
		c-1.814,1.048-3.829,1.583-5.87,1.583c-1.024,0-2.054-0.135-3.068-0.407c-3.04-0.814-5.579-2.763-7.151-5.488L689.131,562.332z
		 M713.181,615.921c-4.338,0-4.331-6.731,0-6.731C717.519,609.191,717.512,615.921,713.181,615.921z M723.875,645.506
		c-1.242,2.847-3.395,5.607-3.96,8.219c-0.283,1.218-0.181,2.615,0.076,4.549c0.194,1.899,0.738,4.251,0.051,7.311
		c-0.353,1.417-0.911,2.787-1.858,4.065c-0.909,1.261-2.342,2.477-4.151,3.011c-1.782,0.533-3.745,0.288-5.246-0.495
		c-1.489-0.779-2.503-1.876-3.225-2.981c-0.723-1.115-1.177-2.277-1.443-3.462c-0.247-1.204-0.281-2.202-0.265-3.168
		c0.049-1.905,0.303-3.438,0.398-4.753c0.277-2.536-0.288-4.435-1.015-5.509c-0.721-1.07-1.494-1.309-1.468-1.34
		c-0.02,0.055,0.792-0.222,2.197,0.58c1.375,0.777,3.055,2.937,3.644,6.017c0.649,2.93,0.742,6.61,2.501,8.23
		c0.414,0.432,0.887,0.75,1.234,0.828c0.348,0.092,0.528,0.013,0.722-0.09c0.154-0.084,0.367-0.271,0.662-0.679
		c0.277-0.419,0.564-1.019,0.731-1.688c0.187-0.696,0.236-1.243,0.239-2.176c-0.001-0.879-0.06-1.847-0.102-2.891
		c-0.091-2.052-0.074-4.572,0.833-6.849c0.882-2.213,2.189-3.754,3.339-5.02c1.164-1.259,2.261-2.296,3.125-3.273
		c1.744-1.97,2.721-4.03,2.904-5.682c0.102-0.821,0.013-1.503-0.06-1.972c-0.113-0.466-0.172-0.711-0.172-0.711s0.148,0.2,0.43,0.58
		c0.243,0.404,0.61,1.035,0.842,1.936C725.331,639.893,725.146,642.643,723.875,645.506z M726.362,626.578
		c-4.338,0-4.331-6.731,0-6.731C730.7,619.848,730.693,626.578,726.362,626.578z M731.13,611.154c-4.338,0-4.331-6.731,0-6.731
		C735.468,604.423,735.461,611.154,731.13,611.154z M744.416,520.816c-0.152-1.586-0.244-2.929-0.451-3.832
		c-0.095-0.439-0.225-0.774-0.301-0.953c-0.127-0.192,0.05-0.205-0.255-0.377c-0.316-0.172-1.055-0.307-1.959-0.706
		c-0.895-0.408-1.594-0.997-2.101-1.603c-1.016-1.222-1.407-2.489-1.584-3.548c-0.159-1.052-0.114-1.899-0.058-2.565
		c0.135-1.324,0.293-1.99,0.293-1.99s0.27,0.672,0.753,1.872c0.479,1.149,1.331,2.974,2.896,3.772
		c0.374,0.189,0.76,0.293,1.108,0.286c0.322,0.003,0.813-0.07,1.646-0.012c0.822,0.022,2.132,0.505,2.943,1.24
		c0.861,0.727,1.447,1.597,1.887,2.458c0.857,1.741,1.199,3.397,1.536,4.877c0.163,0.737,0.317,1.407,0.491,1.996
		c0.165,0.582,0.383,1.134,0.539,1.392c0.354,0.697,1.108,1.307,1.334,1.424c0.12,0.075,0.082,0.152,0.196,0.192
		c0.099,0.05,0.3,0.01,0.561-0.223c0.537-0.502,1-1.444,1.307-2.565c0.328-1.143,0.62-2.428,1.13-3.562
		c0.483-1.125,1.265-2.128,2.093-2.617c0.811-0.517,1.615-0.68,2.201-0.638c1.205,0.121,1.355,0.762,1.378,0.698
		c-0.001,0.028-0.47-0.112-1.075,0.309c-0.3,0.201-0.656,0.556-0.916,1.052c-0.275,0.509-0.341,0.984-0.372,1.826
		c-0.024,0.802,0.097,1.807,0.16,3.144c0.055,1.323,0.011,3.174-0.935,5.103c-0.477,0.969-1.29,2.043-2.521,2.792
		c-1.199,0.734-2.833,1.091-4.251,0.847c-2.876-0.498-4.737-2.204-6.035-4.265C744.76,524.332,744.625,522.452,744.416,520.816z
		 M749.822,429.971c-0.211-0.461-0.395-0.726-0.395-0.726s0.347-0.136,1.035-0.108c0.679,0.029,1.728,0.297,2.779,1.191
		c1.019,0.878,2.045,2.441,2.055,4.612c0.026,2.198-1.287,4.585-3.384,5.864c-2.072,1.323-4.805,1.419-6.731,0.428
		c-1.914-0.957-2.845-2.543-3.189-3.818c-0.34-1.315-0.126-2.357,0.138-2.97c0.135-0.312,0.267-0.526,0.376-0.666
		c0.105-0.133,0.161-0.205,0.161-0.205s0.159,0.262,0.487,0.625c0.319,0.364,0.834,0.805,1.48,1.127
		c0.642,0.322,1.429,0.508,2.035,0.425c0.564-0.085,1.059-0.296,1.661-0.648c0.591-0.359,1.046-0.75,1.385-1.201
		c0.348-0.493,0.555-1.304,0.527-2.044C750.225,431.114,750.033,430.428,749.822,429.971z M775.81,473.277l-5.774,22.839
		c-0.772,3.051-2.685,5.617-5.387,7.229c-1.849,1.103-3.916,1.667-6.013,1.667c-0.97,0-1.944-0.121-2.909-0.364
		c-3.05-0.772-5.618-2.685-7.229-5.387c-1.612-2.702-2.074-5.871-1.303-8.92l5.776-22.839c0.772-3.051,2.685-5.618,5.387-7.229
		c2.7-1.61,5.866-2.072,8.921-1.302C773.575,460.563,777.402,466.981,775.81,473.277z M778.245,419.327c4.338,0,4.331,6.731,0,6.731
		C773.907,426.057,773.914,419.327,778.245,419.327z M776.671,667.026c-16.525,0-29.968-13.443-29.968-29.967
		s13.443-29.967,29.968-29.967c16.523,0,29.966,13.443,29.966,29.967S793.194,667.026,776.671,667.026z M833.774,645.088
		c-4.338,0-4.331-6.731,0-6.731C838.112,638.357,838.105,645.088,833.774,645.088z M861.077,669.969
		c-1.745,2.29-4.457,3.289-6.968,2.935c-1.271-0.198-2.407-0.706-3.319-1.563c-0.868-0.826-1.315-1.762-1.528-2.61
		c-0.423-1.713,0.041-3.129,0.587-3.89c0.263-0.388,0.535-0.631,0.724-0.771c0.191-0.134,0.292-0.205,0.292-0.205
		s-0.019,0.128-0.053,0.369c-0.028,0.23-0.045,0.571,0.032,0.953c0.112,0.762,0.677,1.648,1.47,2.119
		c0.388,0.238,0.834,0.37,1.181,0.311c0.303-0.067,0.631-0.209,0.882-0.387c0.516-0.349,1.023-0.889,1.301-1.282
		c0.391-0.482,0.904-1.273,1.265-2.297c0.375-0.983,0.579-2.202,0.689-3.324c0.109-1.126,0.15-2.154,0.197-2.878
		c0.057-0.737,0.09-1.157,0.09-1.157s0.308,0.203,0.82,0.63c0.509,0.431,1.233,1.08,1.994,2.095
		c0.745,1.016,1.563,2.418,1.886,4.375C862.918,665.275,862.721,667.753,861.077,669.969z M873.475,591.133
		c-1.766,0.194-4.233,1.367-5.409,3.764c-0.603,1.181-0.939,2.593-0.955,4.107c-0.039,1.519,0.322,3.012,0.789,4.982
		c0.408,1.942,1.105,4.211,0.619,7.305c-0.275,1.543-0.946,3.165-2.184,4.54c-1.235,1.353-2.854,2.263-4.638,2.657
		c-1.764,0.41-3.782,0.197-5.404-0.578c-1.627-0.758-2.93-1.951-3.818-3.403c-0.911-1.457-1.274-3.241-1.232-4.639
		c0.028-1.433,0.311-2.602,0.571-3.612c0.266-0.998,0.539-1.887,0.686-2.565c0.15-0.725,0.21-1.43,0.167-2.036
		c-0.048-0.606-0.176-1.097-0.422-1.479c-0.216-0.388-0.665-0.702-1.373-1.044c-0.664-0.335-1.514-0.728-2.109-1.383
		c-0.6-0.623-0.915-1.372-1.031-2.032c-0.218-1.337,0.096-2.365,0.349-3.165c0.276-0.799,0.57-1.379,0.776-1.769
		c0.214-0.384,0.327-0.586,0.327-0.586s-0.015,0.22-0.043,0.64c-0.025,0.416-0.052,1.032-0.01,1.78
		c0.048,0.731,0.184,1.651,0.574,2.298c0.194,0.321,0.428,0.522,0.701,0.643c0.245,0.123,0.601,0.183,1.324,0.317
		c0.357,0.068,0.791,0.149,1.304,0.31c0.515,0.157,1.135,0.452,1.676,0.844c1.108,0.791,1.892,1.988,2.318,3.153
		c0.446,1.182,0.613,2.368,0.643,3.552c0.023,1.233-0.129,2.305-0.222,3.254c-0.104,0.96-0.168,1.816-0.104,2.479
		c0.068,0.686,0.216,1.072,0.467,1.422c0.257,0.368,0.662,0.706,1.083,0.892c0.43,0.183,0.783,0.221,1.269,0.148
		c0.471-0.076,0.948-0.32,1.27-0.609c0.298-0.249,0.595-0.718,0.759-1.273c0.384-1.165,0.266-3.104,0.103-5.12
		c-0.075-1.019-0.15-2.086-0.137-3.199c0.003-1.127,0.135-2.287,0.39-3.346c0.495-2.135,1.487-4.047,2.798-5.473
		c1.288-1.438,2.962-2.341,4.396-2.701c1.458-0.388,2.772-0.334,3.792-0.131c1.025,0.225,1.761,0.587,2.214,0.888
		c0.456,0.296,0.666,0.483,0.666,0.483s-0.272-0.099-0.779-0.216C875.134,591.113,874.373,591.031,873.475,591.133z
		 M908.268,644.219c-1.172,2.92-3.41,5.209-6.304,6.446c-1.487,0.636-3.056,0.955-4.627,0.955c-1.484,0-2.968-0.284-4.387-0.854
		c-2.92-1.171-5.209-3.41-6.445-6.303l-9.258-21.662c-1.237-2.892-1.274-6.094-0.102-9.014c1.172-2.92,3.41-5.209,6.304-6.446
		c2.892-1.237,6.092-1.273,9.015-0.101c2.92,1.171,5.209,3.41,6.445,6.303l9.258,21.662
		C909.403,638.097,909.44,641.299,908.268,644.219z M808.365,433.51c2.167-1.756,5.346-1.421,7.099,0.746l95.813,118.318
		c1.755,2.167,1.421,5.346-0.746,7.101c-0.935,0.757-2.057,1.125-3.173,1.125c-1.471,0-2.928-0.639-3.926-1.871l-95.813-118.318
		C805.863,438.444,806.197,435.265,808.365,433.51z M824.239,499.535c-4.338,0-4.331-6.731,0-6.731
		C828.577,492.804,828.57,499.535,824.239,499.535z M788.726,552.249c-1.591-4.764,0.197-9.984,5.314-15.516
		c6.226-6.736,14.244-9.64,23.204-8.399c5.814,0.805,11.228,3.498,15.657,7.786l1.601,1.551c4.427,4.286,7.291,9.611,8.284,15.399
		c1.525,8.911-1.121,17.024-7.653,23.464c-5.367,5.29-10.52,7.247-15.34,5.806c-2.774-0.828-4.81-2.647-6.281-4.646l-4.08,4.214
		c-0.991,1.022-2.309,1.536-3.627,1.536c-1.265,0-2.531-0.472-3.512-1.421l-12.693-12.292c-0.961-0.932-1.515-2.207-1.536-3.546
		c-0.021-1.338,0.49-2.631,1.421-3.592l4.082-4.215C791.524,556.971,789.643,554.995,788.726,552.249z M642.976,362.091
		l50.005-61.75c1.742-2.126,4.294-3.334,7.019-3.334c2.725,0,5.276,1.208,7.002,3.313l73.592,90.877
		c1.755,2.167,1.421,5.346-0.746,7.101c-0.933,0.757-2.057,1.125-3.173,1.125c-1.471,0-2.928-0.639-3.926-1.871L700,307.716
		l-49.178,60.729c-1.755,2.166-4.935,2.5-7.1,0.746C641.555,367.436,641.222,364.258,642.976,362.091z M644.471,410.352
		c4.338,0,4.331,6.731,0,6.731C640.133,417.083,640.14,410.352,644.471,410.352z M641.061,469.289
		c8.716,2.393,14.943,8.229,18.008,16.875c2.518,7.103,2.099,12.605-1.241,16.354c-1.926,2.162-4.437,3.236-6.87,3.72l2.087,5.483
		c0.477,1.251,0.436,2.641-0.112,3.862c-0.548,1.221-1.559,2.175-2.81,2.651l-16.514,6.285c-0.591,0.225-1.198,0.332-1.794,0.332
		c-2.034,0-3.952-1.239-4.719-3.255l-2.087-5.482c-2.14,1.255-4.73,2.125-7.605,1.789c-4.988-0.578-8.958-4.41-11.801-11.389
		c-3.461-8.496-2.691-16.995,2.229-24.578c3.195-4.927,7.929-8.689,13.688-10.881l2.083-0.793
		C629.36,468.071,635.397,467.736,641.061,469.289z M629.957,435.731c-0.132,0.734-0.377,1.793-0.857,3.055
		c-0.483,1.257-1.201,2.722-2.26,4.197c-0.552,0.757-1.083,1.435-1.889,2.235c-0.846,0.771-1.902,1.718-3.874,2.149
		c-0.978,0.203-2.137,0.134-3.181-0.267c-1.048-0.41-1.891-1.11-2.442-1.834c-1.11-1.477-1.409-2.992-1.337-4.462
		c0.293-2.713,1.52-4.079,2.215-5.091c0.758-0.982,1.273-1.669,1.565-2.212c0.294-0.533,0.394-0.881,0.394-0.881
		s0.325,0.257,0.654,0.978c0.337,0.708,0.547,1.944,0.517,3.354c-0.019,1.374-0.096,2.965,0.335,3.739
		c0.015,0.022,0.035,0.041,0.052,0.063c0.039-0.007,0.09-0.021,0.164-0.047c0.179-0.067,0.428-0.187,0.702-0.342
		c0.666-0.417,1.309-0.82,1.925-1.205c1.364-0.835,2.603-1.593,3.657-2.239c2.316-1.418,3.817-2.337,3.817-2.337
		S630.09,434.997,629.957,435.731z M526.439,505.999l92.962-114.797c1.753-2.167,4.931-2.502,7.1-0.746
		c2.167,1.755,2.5,4.934,0.746,7.101l-92.962,114.797c-0.997,1.232-2.456,1.871-3.927,1.871c-1.116,0-2.239-0.368-3.174-1.125
		C525.019,511.345,524.685,508.166,526.439,505.999z M491.66,636.704c1.573-2.725,4.113-4.674,7.152-5.488
		c3.038-0.815,6.213-0.395,8.938,1.177l20.401,11.779c5.624,3.247,7.559,10.465,4.312,16.09c0,0.001,0,0.001,0,0.001
		c-2.179,3.775-6.147,5.887-10.22,5.887c-1.997,0-4.02-0.508-5.871-1.576l-20.401-11.779c-2.725-1.573-4.673-4.113-5.488-7.151
		C489.669,642.604,490.086,639.429,491.66,636.704z"/>
	<path fill="#48A146" d="M891.171,616.849c-0.353-0.827-1.007-1.466-1.842-1.8c-0.404-0.163-0.828-0.244-1.252-0.244
		c-0.449,0-0.897,0.091-1.323,0.273c-0.827,0.353-1.466,1.007-1.801,1.841c-0.335,0.835-0.324,1.748,0.03,2.574l9.258,21.664
		c0.353,0.827,1.007,1.466,1.842,1.8c0.831,0.334,1.747,0.325,2.575-0.029c0.827-0.353,1.466-1.007,1.801-1.841
		c0.335-0.834,0.324-1.748-0.03-2.574L891.171,616.849z"/>
	<path fill="#EFD2C0" d="M803.205,551.651c1.834,0.334,3.333,1.65,3.903,3.424c0.57,1.774,0.115,3.717-1.18,5.055l-5.676,5.861
		l5.439,5.268l5.676-5.861c0.965-0.996,2.279-1.536,3.627-1.536c0.463,0,0.93,0.063,1.389,0.195c1.791,0.513,3.155,1.97,3.546,3.791
		c0.439,1.932,1.771,4.531,2.759,4.82c0.432,0.129,2.222-0.231,5.357-3.323c4.136-4.077,5.746-8.979,4.79-14.569
		c-0.628-3.66-2.48-7.068-5.355-9.852c0-0.001,0-0.001,0-0.001l-1.601-1.55c-2.877-2.786-6.343-4.528-10.019-5.037
		c-5.617-0.775-10.464,0.988-14.406,5.252c-2.999,3.243-3.291,5.045-3.15,5.465C798.648,550.089,801.515,551.344,803.205,551.651z"
		/>
	<rect x="461.831" y="397.745" fill="#B25420" width="37.333" height="18.188"/>
	<polygon fill="#B25420" points="506.367,490.691 521.096,472.503 492.232,472.503 492.232,490.691 	"/>
	<polygon fill="#D52C20" points="541.277,447.583 461.831,447.583 461.831,465.772 526.547,465.772 	"/>
	<rect x="461.831" y="472.503" fill="#D52C20" width="23.669" height="18.188"/>
	<rect x="461.831" y="422.664" fill="#B25420" width="63.848" height="18.188"/>
	<rect x="461.831" y="372.825" fill="#D52C20" width="96.822" height="18.189"/>
	<polygon fill="#D52C20" points="461.831,522.341 461.831,545.687 480.737,522.341 	"/>
	<polygon fill="#B25420" points="500.917,497.422 461.831,497.422 461.831,515.61 486.188,515.61 	"/>
	<path fill="#EFD2C0" d="M971.755,1096.891h-543.51h-67.308h-19.351c-0.464,0-0.841,0.378-0.841,0.841v16.827
		c0,0.463,0.377,0.841,0.841,0.841h716.828c0.463,0,0.841-0.378,0.841-0.841v-16.827c0-0.463-0.378-0.841-0.841-0.841h-19.351
		H971.755z"/>
	<path fill="#E53722" d="M700,374.507c-10.957,0-19.871,8.915-19.871,19.872c0,10.957,8.914,19.871,19.871,19.871
		s19.872-8.914,19.872-19.871C719.872,383.422,710.957,374.507,700,374.507z"/>
	<rect x="505.895" y="397.745" fill="#D52C20" width="52.758" height="18.188"/>
	<path fill="#EFD2C0" d="M654.093,624.979l-2.07-0.829c-3.715-1.488-7.583-1.788-11.181-0.868
		c-5.493,1.407-9.31,4.878-11.344,10.317c-1.547,4.136-1.135,5.914-0.846,6.251c0.715,0.828,3.844,0.906,5.524,0.549
		c1.828-0.384,3.711,0.265,4.908,1.69c1.199,1.426,1.515,3.397,0.822,5.126l-3.033,7.572l7.03,2.817l3.033-7.573
		c0.693-1.729,2.282-2.936,4.133-3.14c1.862-0.211,3.665,0.628,4.718,2.166c1.138,1.62,3.308,3.489,4.378,3.416
		c0.441-0.046,1.967-1.053,3.7-5.105c2.283-5.34,1.919-10.486-1.084-15.297C660.815,628.921,657.81,626.469,654.093,624.979z"/>
	<polygon fill="#B25420" points="546.727,440.852 558.654,426.125 558.654,422.664 532.41,422.664 532.41,440.852 	"/>
	<rect x="428.245" y="800.737" fill="#F49600" width="543.51" height="282.693"/>
	<rect x="985.217" y="829.696" fill="#B25420" width="40.385" height="39.571"/>
	<path fill="#D52C20" d="M985.217,915.567h40.385v-39.57h-40.385V915.567z M1015.926,910.112c-3.254,0-3.248-5.048,0-5.048
		C1019.179,905.064,1019.174,910.112,1015.926,910.112z M1015.084,895.81c3.254,0,3.248,5.048,0,5.048
		C1011.831,900.858,1011.836,895.81,1015.084,895.81z M1005.409,900.858c3.254,0,3.248,5.048,0,5.048
		C1002.155,905.906,1002.161,900.858,1005.409,900.858z"/>
	<path fill="#D52C20" d="M1025.601,800.737h-40.385v22.228h40.385V800.737z M995.874,814.479c-3.254,0-3.248-5.048,0-5.048
		C999.127,809.431,999.122,814.479,995.874,814.479z"/>
	<rect x="985.217" y="922.298" fill="#D52C20" width="40.385" height="39.571"/>
	<rect x="374.399" y="1014.901" fill="#B25420" width="40.385" height="39.571"/>
	<rect x="985.217" y="968.6" fill="#B25420" width="40.385" height="39.57"/>
	<path fill="#B25420" d="M374.399,961.869h40.385v-39.571h-40.385V961.869z M407.492,956.386c-3.254,0-3.248-5.048,0-5.048
		C410.745,951.338,410.74,956.386,407.492,956.386z M403.565,942.364c3.254,0,3.248,5.048,0,5.048
		C400.312,947.412,400.317,942.364,403.565,942.364z M397.956,949.095c3.254,0,3.248,5.048,0,5.048
		C394.703,954.143,394.708,949.095,397.956,949.095z"/>
	<path fill="#E53722" d="M555.808,560.799c-10.957,0-19.871,8.914-19.871,19.871c0,10.957,8.914,19.872,19.871,19.872
		s19.872-8.915,19.872-19.872C575.68,569.713,566.766,560.799,555.808,560.799z"/>
	<rect x="374.399" y="1061.203" fill="#D52C20" width="40.385" height="22.227"/>
	<rect x="374.399" y="968.6" fill="#D52C20" width="40.385" height="39.57"/>
	<rect x="374.399" y="875.998" fill="#D52C20" width="40.385" height="39.57"/>
	<rect x="374.399" y="800.737" fill="#B25420" width="40.385" height="22.228"/>
	<path fill="#F2C673" d="M1047.476,698.093H352.524c-6.495,0-11.779,5.284-11.779,11.778v49.36h267.783
		c2.788,0,5.048,2.259,5.048,5.048c0,2.789-2.26,5.048-5.048,5.048H340.745v6.169c0,6.494,5.284,11.779,11.779,11.779h8.414h67.308
		h543.51h67.308h8.414c6.494,0,11.779-5.285,11.779-11.779v-6.169H700c-2.788,0-5.048-2.259-5.048-5.048
		c0-2.789,2.26-5.048,5.048-5.048h359.255v-49.36C1059.255,703.377,1053.97,698.093,1047.476,698.093z M655.64,769.327h-15.376
		c-2.788,0-5.048-2.259-5.048-5.048c0-2.789,2.26-5.048,5.048-5.048h15.376c2.788,0,5.048,2.259,5.048,5.048
		C660.688,767.068,658.428,769.327,655.64,769.327z"/>
	<path fill="#D52C20" d="M374.399,869.267h40.385v-39.571h-40.385V869.267z M383.934,856.547c3.254,0,3.248,5.048,0,5.048
		C380.68,861.595,380.686,856.547,383.934,856.547z"/>
	<rect x="985.217" y="1061.203" fill="#B25420" width="40.385" height="22.227"/>
	<path fill="#D52C20" d="M985.217,1054.472h40.385v-39.571h-40.385V1054.472z M993.63,1044.307c3.254,0,3.248,5.048,0,5.048
		C990.377,1049.355,990.382,1044.307,993.63,1044.307z"/>
	<path fill="#F49600" d="M495.724,649.057c1.756,7.264,6.077,13.881,12.022,18.409c2.843,2.166,6.114,3.886,9.651,4.403
		c3.537,0.517,7.361-0.284,10.051-2.638c2.69-2.354,3.992-6.367,2.698-9.698c-1.571,1.777-3.859,2.902-6.226,3.061
		c-4.458,0.299-8.432-2.623-11.825-5.531c-3.393-2.908-6.996-6.106-11.443-6.541"/>
	<path fill="#D59750" d="M336,764.279h727.667c0,0,7,30.387-19.333,30.387c-26.333,0-629.55,0-629.55,0H362.5
		C362.5,794.667,336,801.059,336,764.279z"/>
	<rect x="422" y="800.737" fill="#F47700" width="556" height="11.219"/>
	<rect x="428.245" y="945" fill="#F47700" width="543.51" height="151.891"/>
	<path fill="#FFFFFF" d="M336,707h726c0,0-2-12.5-22.5-12.5s-682.5,0-682.5,0S339.5,696.329,336,707z"/>
	<rect x="368.333" y="795.092" opacity="0.6" fill="#F5CD00" width="13.163" height="294.575"/>
	<rect x="397.956" y="794.667" opacity="0.4" fill="#422834" width="20.377" height="295"/>
	
		<rect x="1018.503" y="795.092" transform="matrix(-1 -4.505164e-11 4.505164e-11 -1 2050.1677 1884.7585)" opacity="0.6" fill="#F5CD00" width="13.163" height="294.575"/>
	
		<rect x="981.665" y="794.667" transform="matrix(-1 -4.481228e-11 4.481228e-11 -1 1983.707 1884.3334)" opacity="0.4" fill="#422834" width="20.377" height="295"/>
	<path fill="#F49600" d="M336.333,1110H1067c0,0-5,12-16,12s-710.255,0-710.255,0"/>
	<path fill="#F49600" d="M723.001,289c-4-6-23-13-23-13s-19,7-23,13S355.5,690.5,355.5,690.5H383L700,302l317,388.5h27.5
		C1044.501,690.5,727.001,295,723.001,289z"/>
	<path opacity="0.6" fill="#F5CD00" d="M471.284,337.667V544.66l-12.618,8.416V345.333
		C458.667,345.333,456.569,334.333,471.284,337.667z"/>
	<path opacity="0.4" fill="#422834" d="M516.109,334.5v154.378l51.494-62.821V346C567.602,346,540.717,332.5,516.109,334.5z"/>
	<path fill="#F49600" d="M529.901,593.041c-0.407,7.425,2.119,15.068,7.258,20.442s12.912,8.263,20.25,7.052
		s13.928-6.693,15.998-13.836c0.434-1.496,0.531-3.423-0.763-4.29c-1.477-0.99-3.374,0.204-4.91,1.099
		c-5.311,3.092-12.124,2.568-17.769,0.14c-5.645-2.429-10.376-6.533-15.006-10.574"/>
	<path fill="#F49600" d="M632.642,665.274c1.273,3.602,3.309,7.267,6.793,8.834c3.729,1.677,8.159,0.495,11.713-1.528
		s6.62-4.835,10.237-6.741c2.135-1.125,4.492-1.957,6.219-3.643c1.727-1.686,2.577-4.632,1.058-6.507
		c-4.569,1.902-9.686,3.824-14.327,2.107c-1.822-0.674-3.67-1.907-5.539-1.379c-2.003,0.565-2.99,2.898-4.854,3.823
		c-2.588,1.283-5.74-0.706-7.147-3.229c-1.407-2.524-5.202-18.029-11.04-10.272c-2.125,2.823,1.031,5.257,2.52,7.6
		C630.432,657.733,631.316,661.523,632.642,665.274z"/>
	<path fill="#F49600" d="M751.31,648.714c0.585,8.176,4.93,16.095,11.758,20.63s16.038,5.427,23.441,1.909
		c7.403-3.519,12.591-11.472,12.428-19.668c-5.963,4.452-12.667,8.257-20.036,9.293s-15.503-1.129-20.212-6.891"/>
	<path fill="#F49600" d="M695.678,567.603c0.131,6.183,0.31,12.58,2.963,18.167c2.652,5.587,8.496,10.159,14.621,9.304
		c3.827-0.534,7.274-3.244,8.698-6.836c1.423-3.593,0.767-7.928-1.656-10.938c-1.17,4.011-5.288,6.951-9.462,6.754
		c-4.173-0.197-7.997-3.511-8.784-7.614"/>
	<path fill="#F49600" d="M791.387,566.916c-3.049,3.772-2.567,9.478-0.156,13.686s6.374,7.26,10.234,10.196
		c1.426,1.085,2.911,2.198,4.659,2.589c1.748,0.391,3.841-0.151,4.701-1.723c0.532-0.972,0.535-2.2,1.21-3.078
		c0.823-1.071,2.382-1.266,3.709-1.015c1.327,0.252,2.572,0.853,3.908,1.054c3.045,0.457,6.12-1.317,7.879-3.845
		c1.759-2.527,2.388-5.68,2.541-8.755c-4.051,1.763-8.923,1.509-12.769-0.666c-1.792-1.013-3.49-2.455-5.546-2.555
		c-2.015-0.098-3.831,1.128-5.779,1.652c-3.78,1.018-8.145-0.982-9.843-4.509"/>
	<path fill="#F49600" d="M882.642,630.297c1.653,3.887,2.203,8.135,3.028,12.277c0.826,4.142,2.009,8.362,4.67,11.642
		s7.131,5.406,11.184,4.214c3.467-1.02,5.937-4.235,7.036-7.678c1.099-3.443,1.052-7.132,0.994-10.746
		c-1.745-0.431-3.57,0.331-5.064,1.329c-1.495,0.999-2.831,2.257-4.463,3.012c-4.319,2.002-10.122-0.62-11.474-5.185"/>
	<path fill="#F49600" d="M753.74,499.013c3.469,3.071,7.6,5.389,12.029,6.75c1.214,0.373,2.527,0.674,3.738,0.29
		c2.062-0.653,3.027-2.958,3.736-5.002c2.204-6.358,4.437-13.116,3.007-19.692c-0.229-1.054-0.572-2.125-1.302-2.918
		c-0.73-0.793-1.935-1.234-2.923-0.803c-1.052,0.46-1.509,1.676-1.86,2.769c-1.834,5.714-3.668,11.429-5.501,17.143"/>
	<path fill="#F49600" d="M726.286,399.602c3.141,6.926,1.041,15.542-4.104,21.143c-5.145,5.601-12.845,8.4-20.441,8.758
		c-4.877,0.23-9.958-0.53-14.048-3.197c-4.09-2.667-6.972-7.512-6.347-12.354c6.615,4.204,14.859,5.767,22.554,4.277
		s14.759-6.018,19.327-12.387"/>
	<path fill="#F49600" d="M612.657,511.072c-1.242,2.667-0.858,6.016,0.955,8.333c1.813,2.317,4.972,3.494,7.859,2.93
		c-0.798,4.297,2.122,8.744,6.135,10.478c4.012,1.733,8.767,1.078,12.656-0.915c3.889-1.994,7.028-5.193,9.779-8.589
		c1.626-2.007,3.173-4.894,1.66-6.988c-1.256-1.738-3.934-1.699-5.871-0.778c-1.937,0.921-3.504,2.493-5.434,3.43
		c-4.237,2.058-9.924,0.319-12.285-3.756c-1.023-1.766-1.633-4.029-3.486-4.887c-1.322-0.612-2.929-0.265-4.156,0.521
		c-1.227,0.785-2.152,1.952-3.054,3.096"/>
	<path fill="#F49600" d="M562.371,511.342c-1.637-1.843-4.938-1.212-6.419,0.759c-1.482,1.97-1.489,4.706-0.874,7.093
		c0.615,2.388,1.77,4.605,2.439,6.978c1.131,4.01,1.033,8.74,4.052,11.61c2.022,1.922,5.236,2.464,7.777,1.312
		s4.25-3.928,4.135-6.716c-0.174-4.219-4.053-8.178-2.604-12.144c0.435-1.191,1.317-2.18,1.743-3.375
		c0.674-1.89,0.012-4.176-1.568-5.413c-1.58-1.237-3.958-1.331-5.631-0.222"/>
	<path fill="#F49600" d="M703.436,483.857c-2.161-2.752-4.964-5.274-8.411-5.875c-3.447-0.601-7.503,1.417-8.092,4.866
		c-0.495,2.901,1.441,5.606,2.107,8.473c1.187,5.113-1.709,10.172-4.215,14.784c-2.506,4.612-4.732,10.259-2.321,14.922
		c1.288,2.491,3.859,4.273,6.643,4.605c2.784,0.332,5.702-0.796,7.54-2.914c2.259-2.605,2.901-6.476,5.616-8.602
		c3.608-2.825,9.461-1.443,12.726-4.657c2.347-2.31,2.334-6.25,0.865-9.197c-1.494-2.997-4.276-4.783-6.211-7.407
		C707.525,489.933,705.694,486.734,703.436,483.857z"/>
	<path fill="#F49600" d="M672.461,462.4c-1.211-1.641-2.751-3.452-4.79-3.394c-1.966,0.056-3.484,1.998-3.673,3.956
		c-0.189,1.958,0.638,3.871,1.625,5.572c0.976,1.683,2.168,3.303,3.809,4.349c1.641,1.046,3.805,1.429,5.557,0.582
		C680.571,470.766,674.46,465.108,672.461,462.4z"/>
	<path fill="#F49600" d="M737.441,442.371c-3.12,1.08-5.366,3.902-6.653,6.942c-0.776,1.832-1.27,3.829-1.06,5.807
		c0.21,1.978,1.201,3.933,2.884,4.992s4.076,1.038,5.547-0.3c2.353-2.14,1.541-6.314,3.722-8.63
		c0.928-0.985,2.255-1.467,3.392-2.199C751.481,444.987,741.213,441.066,737.441,442.371z"/>
	<path fill="#F49600" d="M805.608,483.805c-2.628,2.121-3.115,5.888-3.206,9.264c-0.091,3.376-0.074,7.043-2.137,9.717
		c-1.204,1.561-2.972,2.568-4.446,3.878c-1.473,1.31-2.725,3.209-2.327,5.14c0.455,2.205,2.951,3.484,5.2,3.38
		c2.249-0.104,4.305-1.228,6.297-2.277c1.992-1.048,4.128-2.073,6.377-1.954c2.328,0.124,4.389,1.448,6.49,2.458
		c2.101,1.01,4.646,1.715,6.703,0.618c2.144-1.143,2.96-3.914,2.618-6.319c-0.505-3.552-2.846-6.513-3.993-9.856
		c-0.768-2.241-0.894-4.68-1.779-6.875C819.23,485.572,811.284,479.226,805.608,483.805z"/>
	<path fill="#F49600" d="M768.223,579.336c-0.676-2.926-1.581-5.906-3.524-8.197s-5.162-3.732-8.016-2.798
		c-3.839,1.257-5.304,5.947-5.366,9.986s0.667,8.296-1.029,11.962c-1.358,2.936-4.075,5.01-5.796,7.749
		c-1.721,2.739-1.999,7.026,0.809,8.632c2.512,1.435,5.731-0.302,7.529-2.568c2.345-2.957,3.632-6.976,6.938-8.796
		c1.981-1.091,4.345-1.171,6.517-1.809C773.604,591.346,769.408,584.468,768.223,579.336z"/>
	<path fill="#F49600" d="M884.985,555.222c-1.509-2.198-4.695-3.517-6.916-2.041c-1.757,1.169-2.231,3.547-2.164,5.656
		s0.513,4.261-0.024,6.302c-1.112,4.226-6.024,6.603-7.149,10.826c-0.563,2.113-0.017,4.489,1.412,6.143
		c1.429,1.655,3.699,2.542,5.872,2.294c3.386-0.387,6.218-3.279,9.625-3.183c3.371,0.096,6.33,3.136,9.654,2.571
		c3.235-0.55,4.973-4.656,3.808-7.723c-1.763-4.645-6.394-3.979-9.471-6.747C885.904,565.967,887.762,559.266,884.985,555.222z"/>
	<path fill="#F49600" d="M904.621,593.827c-0.19,0.911-0.004,1.855,0.21,2.76c0.449,1.903,1.028,3.796,2.011,5.486
		c0.54,0.928,1.306,1.856,2.367,2.023c0.857,0.135,1.741-0.287,2.303-0.947c0.563-0.66,0.836-1.527,0.924-2.39
		c0.244-2.378-1.061-4.823-2.514-6.643C908.569,592.418,905.338,590.394,904.621,593.827z"/>
	<path fill="#F49600" d="M951.745,647.034c-3.014-0.626-6.339-0.38-8.887,1.347s-4.049,5.151-2.966,8.033
		c0.65,1.73,2.106,3.095,2.595,4.876c0.996,3.636-2.351,7.496-1.149,11.07c0.79,2.349,3.296,3.664,5.697,4.279
		c2.99,0.766,6.508,0.683,8.745-1.444c2.397-2.279,2.501-6.03,2.155-9.32s-0.938-6.804,0.549-9.758
		c1.006-1.997,3.39-4.214,1.198-5.956C957.687,648.576,954.202,647.545,951.745,647.034z"/>
	<path fill="#F49600" d="M878.681,686.419c0.776-4.268,1.555-8.624,0.951-12.919s-2.842-8.598-6.707-10.567
		c-4.425-2.255-10.409-1.277-13.894-4.816c-2.059-2.091-3.103-5.624-5.991-6.148c-1.905-0.345-3.804,0.95-4.776,2.625
		c-0.971,1.675-1.217,3.659-1.439,5.582c-0.78,6.736-1.874,14.166-7.068,18.525c-1.485,1.247-3.229,2.158-4.713,3.406
		c-1.484,1.248-2.745,2.982-2.736,4.921"/>
	<path fill="#F49600" d="M545.758,689.998c1.043-6.132,2.644-13.083,8.1-16.07c3.664-2.006,8.188-1.644,12.067-3.195
		c3.052-1.22,5.6-3.651,6.963-6.642c0.66-1.447,1.06-3.03,1.97-4.334s2.563-2.293,4.071-1.789c1.377,0.46,2.112,1.947,2.506,3.344
		c0.771,2.728,0.802,5.604,1.239,8.405c0.437,2.801,1.379,5.69,3.523,7.546c1.976,1.71,4.667,2.291,6.96,3.544
		s4.354,3.833,3.476,6.295"/>
	<path fill="#F49600" d="M448.045,615.425c3.843,1.974,4.898,6.979,4.791,11.298c-0.108,4.319-0.887,8.874,0.937,12.79
		c1.465,3.145,4.375,5.329,6.574,8.013c2.53,3.087,4.162,7.188,3.305,11.087c-0.857,3.899-4.781,7.193-8.697,6.419
		c-3.011-0.595-5.401-3.297-8.468-3.427c-2.907-0.123-5.307,2.07-7.798,3.573c-4.28,2.583-9.658,3.273-14.451,1.852
		c-4.793-1.421-8.926-4.93-11.107-9.428c9.196-10.865,17.524-22.463,24.88-34.648"/>
	<path fill="#FFFFFF" d="M612.855,557.982c1.016,0.973,2.504,1.223,3.895,1.429c0.912,0.135,1.953,0.234,2.65-0.369
		c0.775-0.67,0.721-1.952,0.16-2.81s-1.49-1.39-2.387-1.886c-1.2-0.663-1.763-1.377-2.678-2.299
		c-0.686-0.692-1.057-1.109-2.013-0.337C610.828,553.049,611.503,556.688,612.855,557.982z"/>
	<path fill="#FFFFFF" d="M610.29,541.238c-0.199-0.185-0.422-0.363-0.689-0.414c-0.375-0.072-0.769,0.136-0.985,0.452
		s-0.274,0.718-0.237,1.098c0.067,0.681,0.412,1.299,0.75,1.894c0.507,0.893,1.015,1.786,1.522,2.679
		c0.117,0.205,0.243,0.421,0.449,0.537c0.447,0.253,1.039-0.124,1.202-0.611c0.177-0.529-0.018-1.053-0.09-1.578
		c-0.071-0.52-0.128-1.015-0.296-1.518C611.593,542.815,611.033,541.93,610.29,541.238z"/>
	<path fill="#FFFFFF" d="M759.323,561.716c-0.842,1.588-1.707,3.269-1.656,5.066c0.051,1.797,1.383,3.693,3.18,3.685
		c1.597-0.007,2.819-1.426,3.551-2.845c0.851-1.648,1.361-3.6,0.776-5.36c-0.586-1.76-2.57-3.119-4.323-2.511"/>
	<path fill="#FFFFFF" d="M880.667,603.368c0.748-1.29,2.302-4.647,1.062-6.033c-0.941-1.052-2.401-0.06-3.205,0.686
		c-1.255,1.165-2.065,2.838-1.812,4.569C877.078,605.098,879.34,605.655,880.667,603.368z"/>
	<path fill="#FFFFFF" d="M876.394,558.258c1.263,0.066,2.418,1.165,2.451,2.43c0.034,1.264-1.152,2.454-2.411,2.338
		c-1.017-0.094-2.846-1.532-2.876-2.656C873.526,559.111,875.328,558.202,876.394,558.258z"/>
	<path fill="#FFFFFF" d="M770.046,415.182c0.288,0.785,0.513,1.733,0.009,2.4c-0.391,0.518-1.124,0.68-1.76,0.552
		c-0.636-0.129-1.194-0.499-1.714-0.886c-3.679-2.736-6.376-6.766-7.501-11.211c-1.203-4.752,4.215-2.013,5.681-0.059
		C766.826,408.73,768.861,411.953,770.046,415.182z"/>
</g>
<g id="Layer_4">
	<g>
		<path fill="#42161A" d="M1050.896,684.891L725.804,283.446c-6.335-7.823-15.739-12.309-25.805-12.309
			c-10.065,0-19.47,4.486-25.804,12.309l-102.08,126.055V352.3c0-12.526-10.191-22.716-22.716-22.716h-78.313
			c-12.526,0-22.716,10.191-22.716,22.716v210.011l-99.266,122.581c-12.302,1.678-21.82,12.226-21.82,24.98v65.625
			c0,13.918,11.323,25.24,25.24,25.24h8.414v282.693h-19.351c-7.887,0-14.303,6.417-14.303,14.303v16.827
			c0,7.886,6.416,14.303,14.303,14.303h716.828c7.886,0,14.303-6.417,14.303-14.303v-16.827c0-7.886-6.417-14.303-14.303-14.303
			h-19.351V800.737h8.414c13.918,0,25.24-11.322,25.24-25.24v-65.625C1072.717,697.117,1063.198,686.569,1050.896,684.891z
			 M543.509,343.045h5.889c5.103,0,9.255,4.152,9.255,9.255v13.794h-15.144V343.045z M495.438,343.045h41.34v23.049h-41.34V343.045z
			 M461.831,352.3c0-5.103,4.152-9.255,9.255-9.255h17.621v23.049h-26.876V352.3z M461.831,372.825h96.822v18.189h-96.822V372.825z
			 M505.895,415.933v-18.188h52.758v18.188H505.895z M558.654,422.664v3.461l-11.926,14.727H532.41v-18.188H558.654z
			 M461.831,397.745h37.333v18.188h-37.333V397.745z M461.831,422.664h63.848v18.188h-63.848V422.664z M461.831,447.583h79.445
			l-14.73,18.189h-64.716V447.583z M521.096,472.503l-14.729,18.188h-14.136v-18.188H521.096z M461.831,472.503h23.669v18.188
			h-23.669V472.503z M461.831,497.422h39.085l-14.729,18.188h-24.356V497.422z M461.831,522.341h18.906l-18.906,23.346V522.341z
			 M488.598,534.023c0.905,1.068,1.832,2.116,2.79,3.137c0,0,1.824,1.994,4.66,3.958c2.813,1.984,6.674,3.831,10.123,3.903
			c-1.144-3.254-3.492-6.416-5.441-8.932c-1.963-2.494-3.605-4.291-3.605-4.291c-1.212-1.291-2.358-2.639-3.478-4.01
			l191.009-235.871c3.766-4.65,9.359-7.318,15.343-7.318c5.986,0,11.578,2.668,15.344,7.318l91.703,113.241
			c-0.165,0.171-0.322,0.35-0.489,0.519c0,0-1.54,1.599-3.334,3.878c-1.783,2.297-3.881,5.238-4.805,8.344
			c3.24,0.067,6.803-1.522,9.412-3.247c2.224-1.447,3.771-2.92,4.197-3.342l117.218,144.748c-1.322,1.572-2.672,3.12-4.085,4.61
			c0,0-2.079,2.249-4.627,5.287c-2.531,3.064-5.617,6.853-7.281,10.523c3.997-0.51,8.582-2.977,11.963-5.495
			c3.407-2.495,5.655-4.926,5.655-4.926c1.168-1.232,2.301-2.497,3.41-3.783l99.083,122.354h-15.149l-66.57-82.205
			c-1.755-2.167-4.936-2.502-7.099-0.746c-2.167,1.755-2.501,4.934-0.746,7.101l61.424,75.85h-610.45l92.973-114.811
			c1.754-2.167,1.421-5.346-0.746-7.101c-2.168-1.756-5.346-1.42-7.1,0.746l-98.119,121.165h-15.148L488.598,534.023z
			 M1058.414,1096.891c0.463,0,0.841,0.378,0.841,0.841v16.827c0,0.463-0.378,0.841-0.841,0.841H341.586
			c-0.464,0-0.841-0.378-0.841-0.841v-16.827c0-0.463,0.377-0.841,0.841-0.841h19.351h67.308h543.51h67.308H1058.414z
			 M414.783,829.696v39.571h-40.385v-39.571H414.783z M374.399,822.965v-22.228h40.385v22.228H374.399z M414.783,875.998v39.57
			h-40.385v-39.57H414.783z M414.783,922.298v39.571h-40.385v-39.571H414.783z M414.783,968.6v39.57h-40.385V968.6H414.783z
			 M414.783,1014.901v39.571h-40.385v-39.571H414.783z M414.783,1061.203v22.227h-40.385v-22.227H414.783z M428.245,1083.429
			V800.737h543.51v282.693H428.245z M1025.601,829.696v39.571h-40.385v-39.571H1025.601z M985.217,822.965v-22.228h40.385v22.228
			H985.217z M1025.601,875.998v39.57h-40.385v-39.57H1025.601z M1025.601,922.298v39.571h-40.385v-39.571H1025.601z M1025.601,968.6
			v39.57h-40.385V968.6H1025.601z M1025.601,1014.901v39.571h-40.385v-39.571H1025.601z M1025.601,1061.203v22.227h-40.385v-22.227
			H1025.601z M1059.255,759.231H700c-2.788,0-5.048,2.259-5.048,5.048c0,2.789,2.26,5.048,5.048,5.048h359.255v6.169
			c0,6.494-5.285,11.779-11.779,11.779h-8.414h-67.308h-543.51h-67.308h-8.414c-6.495,0-11.779-5.285-11.779-11.779v-6.169h267.783
			c2.788,0,5.048-2.259,5.048-5.048c0-2.789-2.26-5.048-5.048-5.048H340.745v-49.36c0-6.494,5.284-11.778,11.779-11.778h694.953
			c6.494,0,11.779,5.284,11.779,11.778V759.231z"/>
		<path fill="#42161A" d="M903.432,558.928c0.997,1.232,2.455,1.871,3.926,1.871c1.116,0,2.238-0.368,3.173-1.125
			c2.167-1.755,2.501-4.934,0.746-7.101l-95.813-118.318c-1.753-2.167-4.931-2.502-7.099-0.746
			c-2.167,1.755-2.501,4.934-0.746,7.101L903.432,558.928z"/>
		<path fill="#42161A" d="M643.722,369.191c2.166,1.754,5.345,1.42,7.1-0.746L700,307.716l72.749,89.834
			c0.997,1.232,2.455,1.871,3.926,1.871c1.116,0,2.24-0.368,3.173-1.125c2.167-1.755,2.501-4.934,0.746-7.101l-73.592-90.877
			c-1.725-2.105-4.277-3.313-7.002-3.313c-2.725,0-5.277,1.208-7.019,3.334l-50.005,61.75
			C641.222,364.258,641.555,367.436,643.722,369.191z"/>
		<path fill="#42161A" d="M527.185,513.1c0.935,0.757,2.058,1.125,3.174,1.125c1.471,0,2.929-0.639,3.927-1.871l92.962-114.797
			c1.754-2.167,1.421-5.346-0.746-7.101c-2.169-1.756-5.347-1.421-7.1,0.746l-92.962,114.797
			C524.685,508.166,525.019,511.345,527.185,513.1z"/>
		<path fill="#42161A" d="M729.968,394.379c0-16.525-13.443-29.968-29.968-29.968c-16.524,0-29.967,13.443-29.967,29.968
			c0,16.524,13.443,29.967,29.967,29.967C716.525,424.346,729.968,410.903,729.968,394.379z M700,414.25
			c-10.957,0-19.871-8.914-19.871-19.871c0-10.957,8.914-19.872,19.871-19.872s19.872,8.915,19.872,19.872
			C719.872,405.336,710.957,414.25,700,414.25z"/>
		<path fill="#42161A" d="M585.776,580.67c0-16.524-13.443-29.967-29.968-29.967c-16.524,0-29.967,13.443-29.967,29.967
			c0,16.525,13.443,29.968,29.967,29.968C572.333,610.638,585.776,597.195,585.776,580.67z M555.808,600.542
			c-10.957,0-19.871-8.915-19.871-19.872c0-10.957,8.914-19.871,19.871-19.871s19.872,8.914,19.872,19.871
			C575.68,591.627,566.766,600.542,555.808,600.542z"/>
		<path fill="#42161A" d="M776.671,607.091c-16.525,0-29.968,13.443-29.968,29.967s13.443,29.967,29.968,29.967
			c16.523,0,29.966-13.443,29.966-29.967S793.194,607.091,776.671,607.091z M776.671,656.93c-10.957,0-19.872-8.914-19.872-19.871
			s8.915-19.871,19.872-19.871s19.87,8.914,19.87,19.871S787.628,656.93,776.671,656.93z"/>
		<path fill="#42161A" d="M621.519,471.058c-5.76,2.192-10.493,5.954-13.688,10.881c-4.92,7.583-5.691,16.082-2.229,24.578
			c2.843,6.978,6.813,10.81,11.801,11.389c2.875,0.335,5.465-0.534,7.605-1.789l2.087,5.482c0.767,2.016,2.684,3.255,4.719,3.255
			c0.596,0,1.204-0.107,1.794-0.332l16.514-6.285c1.251-0.477,2.262-1.43,2.81-2.651c0.548-1.222,0.588-2.611,0.112-3.862
			l-2.087-5.483c2.434-0.485,4.945-1.559,6.87-3.72c3.341-3.749,3.759-9.251,1.241-16.354c-3.065-8.646-9.292-14.482-18.008-16.875
			c-5.664-1.554-11.701-1.218-17.459,0.975L621.519,471.058z M627.193,479.7C627.194,479.7,627.194,479.7,627.193,479.7
			c3.742-1.426,7.613-1.659,11.194-0.675c5.469,1.501,9.225,5.038,11.165,10.513c1.472,4.153,1.033,5.928,0.739,6.262
			c-0.681,0.772-3.599,0.875-5.535,0.456c-1.813-0.417-3.714,0.2-4.936,1.605c-1.223,1.405-1.573,3.37-0.91,5.111l2.902,7.624
			l-7.077,2.693l-2.902-7.624c-0.659-1.732-2.223-2.952-4.059-3.197c-0.221-0.03-0.442-0.044-0.661-0.044
			c-1.605,0-3.139,0.772-4.097,2.09c-1.18,1.624-3.429,3.504-4.452,3.361c-0.441-0.053-1.949-1.087-3.612-5.169
			c-2.191-5.378-1.738-10.518,1.349-15.275c2.02-3.116,5.067-5.515,8.809-6.939L627.193,479.7z"/>
		<path fill="#42161A" d="M788.065,566.185c0.021,1.339,0.575,2.614,1.536,3.546l12.693,12.292c0.981,0.949,2.246,1.421,3.512,1.421
			c1.318,0,2.636-0.514,3.627-1.536l4.08-4.214c1.471,1.999,3.507,3.818,6.281,4.646c4.82,1.44,9.973-0.516,15.34-5.806
			c6.532-6.44,9.178-14.553,7.653-23.464c-0.992-5.788-3.857-11.112-8.284-15.399l-1.601-1.551
			c-4.429-4.288-9.843-6.981-15.657-7.786c-8.961-1.242-16.978,1.663-23.204,8.399c-5.117,5.532-6.905,10.753-5.314,15.516
			c0.917,2.746,2.798,4.722,4.843,6.129l-4.082,4.215C788.555,563.554,788.044,564.846,788.065,566.185z M801.453,543.587
			c3.942-4.264,8.79-6.027,14.406-5.252c3.676,0.509,7.142,2.251,10.019,5.037l1.601,1.55c0,0,0,0,0,0.001
			c2.876,2.784,4.728,6.192,5.355,9.852c0.956,5.59-0.654,10.492-4.79,14.569c-3.135,3.092-4.925,3.452-5.357,3.323
			c-0.988-0.288-2.32-2.887-2.759-4.82c-0.391-1.821-1.755-3.278-3.546-3.791c-0.458-0.131-0.925-0.195-1.389-0.195
			c-1.347,0-2.662,0.54-3.627,1.536l-5.676,5.861l-5.439-5.268l5.676-5.861c1.295-1.338,1.75-3.281,1.18-5.055
			c-0.57-1.774-2.069-3.09-3.903-3.424c-1.689-0.307-4.557-1.562-4.902-2.599C798.161,548.632,798.454,546.83,801.453,543.587z"/>
		<path fill="#42161A" d="M657.848,615.607l-2.07-0.83c-5.719-2.291-11.751-2.733-17.439-1.276
			c-8.756,2.242-15.083,7.97-18.297,16.561c-2.64,7.059-2.317,12.567,0.958,16.373c1.889,2.195,4.38,3.311,6.806,3.839l-2.181,5.445
			c-0.498,1.243-0.482,2.632,0.045,3.863c0.527,1.232,1.521,2.203,2.763,2.7l16.401,6.571c0.603,0.242,1.241,0.362,1.877,0.362
			c0.676,0,1.352-0.136,1.986-0.407c1.231-0.528,2.202-1.522,2.7-2.764l2.182-5.446c2.117,1.292,4.689,2.204,7.572,1.921
			c4.998-0.492,9.034-4.254,11.997-11.182c3.607-8.435,2.984-16.946-1.802-24.613C668.237,621.744,663.569,617.9,657.848,615.607z
			 M663.865,647.367c-1.733,4.052-3.259,5.059-3.7,5.105c-1.071,0.074-3.241-1.795-4.378-3.416
			c-1.052-1.538-2.856-2.377-4.718-2.166c-1.851,0.204-3.44,1.411-4.133,3.14l-3.033,7.573l-7.03-2.817l3.033-7.572
			c0.693-1.73,0.377-3.7-0.822-5.126c-1.198-1.425-3.08-2.074-4.908-1.69c-1.68,0.357-4.809,0.279-5.524-0.549
			c-0.289-0.337-0.701-2.115,0.846-6.251c2.034-5.439,5.851-8.911,11.344-10.317c3.598-0.92,7.465-0.62,11.181,0.868l2.07,0.829
			c3.717,1.49,6.722,3.942,8.688,7.091C665.784,636.881,666.148,642.028,663.865,647.367z"/>
		<path fill="#42161A" d="M767.28,458.97c-3.055-0.77-6.221-0.307-8.921,1.302c-2.702,1.611-4.614,4.179-5.387,7.229l-5.776,22.839
			c-0.771,3.05-0.309,6.218,1.303,8.92c1.61,2.701,4.179,4.615,7.229,5.387c0.965,0.243,1.939,0.364,2.909,0.364
			c2.097,0,4.164-0.564,6.013-1.667c2.701-1.611,4.614-4.178,5.387-7.229l5.774-22.839
			C777.402,466.981,773.575,460.563,767.28,458.97z M767.653,471.215l-5.774,22.838c-0.22,0.872-0.767,1.605-1.54,2.066
			c-0.771,0.461-1.676,0.594-2.547,0.372c-0.873-0.22-1.607-0.767-2.067-1.539c-0.46-0.772-0.592-1.677-0.371-2.549l5.776-22.839
			c0.22-0.872,0.767-1.605,1.538-2.066c0.529-0.315,1.119-0.476,1.719-0.476c0.276,0,0.555,0.034,0.83,0.104
			C767.015,467.581,768.108,469.415,767.653,471.215z"/>
		<path fill="#42161A" d="M898.908,613.543c-1.236-2.893-3.525-5.132-6.445-6.303c-2.923-1.172-6.123-1.136-9.015,0.101
			c-2.894,1.237-5.132,3.526-6.304,6.446c-1.172,2.92-1.135,6.122,0.102,9.014l9.258,21.662c1.236,2.893,3.525,5.132,6.445,6.303
			c1.42,0.569,2.904,0.854,4.387,0.854c1.571,0,3.14-0.319,4.627-0.955c2.894-1.237,5.132-3.526,6.304-6.446
			c1.172-2.92,1.135-6.122-0.102-9.014L898.908,613.543z M900.459,641.087c-0.335,0.834-0.974,1.488-1.801,1.841
			c-0.828,0.353-1.744,0.363-2.575,0.029c-0.835-0.334-1.489-0.974-1.842-1.8l-9.258-21.664c-0.353-0.826-0.365-1.739-0.03-2.574
			c0.335-0.834,0.974-1.488,1.801-1.841c0.426-0.182,0.874-0.273,1.323-0.273c0.424,0,0.848,0.081,1.252,0.244
			c0.835,0.334,1.489,0.974,1.842,1.8l9.258,21.664C900.783,639.339,900.794,640.253,900.459,641.087z"/>
		<path fill="#42161A" d="M495.972,652.794l20.401,11.779c1.85,1.068,3.873,1.576,5.871,1.576c4.074,0,8.041-2.112,10.22-5.887
			c0,0,0,0,0-0.001c3.247-5.625,1.312-12.843-4.312-16.09l-20.401-11.779c-2.725-1.572-5.901-1.992-8.938-1.177
			c-3.039,0.814-5.579,2.764-7.152,5.488c-1.573,2.724-1.991,5.899-1.177,8.938C491.298,648.681,493.247,651.221,495.972,652.794z
			 M498.946,640.911c0.449-0.779,1.176-1.336,2.044-1.568c0.29-0.078,0.584-0.116,0.877-0.116c0.583,0,1.159,0.153,1.677,0.452
			l20.401,11.779c1.607,0.928,2.16,2.991,1.232,4.599c-0.45,0.778-1.176,1.334-2.043,1.567c-0.868,0.233-1.776,0.113-2.554-0.336
			l-20.401-11.779C498.571,644.581,498.018,642.518,498.946,640.911z"/>
		<path fill="#42161A" d="M708.062,588.222c1.014,0.272,2.044,0.407,3.068,0.407c2.041,0,4.056-0.536,5.87-1.583
			c5.623-3.247,7.559-10.465,4.312-16.09l-11.779-20.401c-1.573-2.725-4.113-4.674-7.151-5.488c-3.04-0.814-6.213-0.395-8.939,1.177
			c-5.625,3.248-7.559,10.466-4.312,16.09l11.78,20.401C702.483,585.459,705.022,587.408,708.062,588.222z M696.417,558.126
			c-0.928-1.607-0.375-3.669,1.232-4.597c0.518-0.299,1.094-0.453,1.678-0.453c0.292,0,0.587,0.039,0.876,0.117
			c0.868,0.233,1.593,0.789,2.043,1.568l11.779,20.401c0.927,1.608,0.375,3.67-1.232,4.598c-0.781,0.449-1.686,0.57-2.554,0.336
			c-0.868-0.233-1.592-0.789-2.043-1.568L696.417,558.126z"/>
		<path fill="#42161A" d="M655.64,759.231h-15.376c-2.788,0-5.048,2.259-5.048,5.048c0,2.789,2.26,5.048,5.048,5.048h15.376
			c2.788,0,5.048-2.259,5.048-5.048C660.688,761.491,658.428,759.231,655.64,759.231z"/>
		<path fill="#42161A" d="M692.696,457.139c1.077-0.376,1.927-0.983,2.603-1.613c1.353-1.285,2.089-2.685,2.615-4.074
			c0.25-0.702,0.451-1.402,0.568-2.13c0.112-0.678,0.168-1.257,0.214-1.824c0.16-2.242,0.223-3.955,0.663-5.081
			c0.393-1.091,1.213-1.918,2.422-2.609c1.17-0.689,2.53-1.198,3.715-1.724c1.198-0.519,2.265-1.044,3.094-1.582
			c0.829-0.546,1.419-1.064,1.781-1.449c0.348-0.395,0.531-0.602,0.531-0.602s-0.248,0.132-0.721,0.384
			c-0.471,0.234-1.183,0.512-2.087,0.737c-0.908,0.226-2.012,0.365-3.297,0.498c-1.287,0.146-2.765,0.234-4.491,0.71
			c-1.671,0.423-3.852,1.561-5.138,3.735c-1.289,2.113-1.65,4.485-2.127,6.421c-0.245,1.043-0.464,1.688-0.855,2.374
			c-0.365,0.672-0.879,1.25-1.266,1.49c-0.424,0.221-0.401,0.105-0.483,0.079c-0.026-0.009-0.394-0.244-0.708-0.782
			c-0.298-0.469-0.529-1.241-0.702-2.23c-0.173-0.987-0.274-2.157-0.486-3.482c-0.221-1.325-0.56-2.756-1.276-4.178
			c-0.356-0.707-0.821-1.404-1.383-2.022c-0.597-0.668-1.327-1.216-2.079-1.594c-1.499-0.754-3.288-1.066-5.06-0.46
			c-0.845,0.268-1.731,0.934-2.094,1.354c-0.392,0.445-0.535,0.541-0.447,0.629c0.016,0.048,0.015,0.049,0.018,0.061
			c-0.006,0.029-0.029,0.05-0.083,0.068c-0.127,0.023-0.357-0.049-0.577-0.188c-0.458-0.293-0.837-0.768-1.022-1.299
			c-0.416-1.272-0.291-2.89-0.486-4.257c-0.135-1.407-0.781-2.525-1.452-3.109c-0.674-0.627-1.331-0.727-1.664-0.672
			c-0.346,0.056-0.476,0.176-0.48,0.162c-0.007,0.047,0.715-0.102,1.298,1.135c0.137,0.3,0.245,0.678,0.28,1.079
			c0.024,0.2,0.015,0.405-0.003,0.6c-0.025,0.234-0.056,0.493-0.112,0.774c-0.161,1.125-0.794,2.553-0.707,4.846
			c0.124,1.342,0.641,2.579,1.627,3.668c0.505,0.537,1.16,1.06,2.087,1.386c0.906,0.336,2.167,0.348,3.175-0.099
			c1.019-0.448,1.54-0.989,1.81-1.136c0.247-0.144,0.145-0.023,0.248-0.03c0.113,0.033,0.521,0.136,0.835,0.43
			c0.504,0.375,1.065,1.784,1.172,3.834c0.084,1.039,0.11,2.285,0.312,3.728c0.102,0.72,0.259,1.498,0.509,2.299
			c0.254,0.805,0.646,1.703,1.164,2.482c1,1.551,2.699,3.128,5.108,3.556C690.411,457.623,691.624,457.523,692.696,457.139z"/>
		<path fill="#42161A" d="M752.088,530.904c1.419,0.244,3.053-0.112,4.251-0.847c1.23-0.749,2.044-1.823,2.521-2.792
			c0.945-1.928,0.99-3.78,0.935-5.103c-0.063-1.337-0.184-2.342-0.16-3.144c0.031-0.842,0.098-1.317,0.372-1.826
			c0.26-0.496,0.617-0.851,0.916-1.052c0.605-0.421,1.074-0.281,1.075-0.309c-0.023,0.064-0.173-0.577-1.378-0.698
			c-0.585-0.042-1.39,0.121-2.201,0.638c-0.828,0.489-1.61,1.492-2.093,2.617c-0.51,1.134-0.802,2.419-1.13,3.562
			c-0.307,1.121-0.77,2.063-1.307,2.565c-0.262,0.232-0.462,0.272-0.561,0.223c-0.114-0.04-0.076-0.117-0.196-0.192
			c-0.226-0.117-0.98-0.727-1.334-1.424c-0.156-0.258-0.374-0.81-0.539-1.392c-0.173-0.589-0.328-1.259-0.491-1.996
			c-0.337-1.48-0.679-3.136-1.536-4.877c-0.44-0.861-1.026-1.731-1.887-2.458c-0.811-0.734-2.121-1.218-2.943-1.24
			c-0.833-0.058-1.325,0.015-1.646,0.012c-0.348,0.007-0.735-0.097-1.108-0.286c-1.565-0.799-2.416-2.624-2.896-3.772
			c-0.482-1.2-0.753-1.872-0.753-1.872s-0.158,0.667-0.293,1.99c-0.056,0.665-0.101,1.513,0.058,2.565
			c0.176,1.06,0.568,2.327,1.584,3.548c0.507,0.606,1.206,1.195,2.101,1.603c0.903,0.399,1.643,0.534,1.959,0.706
			c0.306,0.172,0.128,0.184,0.255,0.377c0.076,0.179,0.205,0.514,0.301,0.953c0.207,0.903,0.299,2.246,0.451,3.832
			c0.21,1.637,0.345,3.516,1.638,5.824C747.351,528.701,749.212,530.406,752.088,530.904z"/>
		<path fill="#42161A" d="M620.715,589.132c1.208,0.659,2.687,1.002,4.032,0.907c1.381-0.043,2.721-0.532,3.766-1.219
			c1.058-0.687,1.872-1.549,2.499-2.452c1.236-1.789,1.821-3.891,1.886-5.753c0.115-3.72-0.945-6.592-1.425-9.148
			c-0.517-2.536-0.622-4.89,0.054-6.825c0.616-1.964,2.167-3.24,3.632-3.797c1.472-0.596,2.882-0.459,3.758-0.111
			c0.437,0.175,0.767,0.359,0.964,0.509c0.206,0.146,0.312,0.221,0.312,0.221s-0.09-0.095-0.266-0.281
			c-0.171-0.192-0.466-0.444-0.895-0.715c-0.851-0.539-2.382-1.003-4.207-0.625c-0.906,0.182-1.887,0.541-2.838,1.195
			c-0.955,0.652-1.859,1.678-2.442,2.815c-1.264,2.335-1.56,5.267-1.398,8.166c0.15,2.883,0.646,5.803,0.154,8.3
			c-0.219,1.171-0.761,2.242-1.518,3.052c-0.779,0.817-1.56,1.102-2.256,0.982c-0.679-0.094-1.366-0.538-2.096-1.645
			c-0.687-1.08-1.244-2.559-1.501-4.091c-0.126-0.703-0.208-1.651-0.309-2.641c-0.098-0.984-0.204-2.024-0.377-3.12
			c-0.359-2.159-0.896-4.691-2.644-7.101c-0.858-1.176-2.056-2.231-3.279-2.917c-1.203-0.687-2.293-1.07-3.219-1.426
			c-0.907-0.341-1.684-0.64-2.178-0.935c-0.523-0.297-0.742-0.528-0.97-0.844c-0.191-0.319-0.353-0.745-0.445-1.349
			c-0.084-0.608-0.073-1.384-0.037-2.196c0.087-1.68,0.366-3.565,0.241-5.734c-0.05-2.107-0.908-4.747-2.502-6.418
			c-1.554-1.719-3.307-2.582-4.794-3.3c-1.508-0.703-2.871-1.223-4.019-1.798c-1.165-0.564-2.015-1.166-2.83-1.924
			c-1.595-1.509-2.564-3.424-3.118-5.177c-0.519-1.776-0.61-3.417-0.501-4.734c0.088-1.331,0.422-2.323,0.637-2.996
			c0.271-0.657,0.413-1.001,0.413-1.001s-0.235,0.307-0.682,0.891c-0.386,0.624-1,1.574-1.416,2.989
			c-0.429,1.399-0.737,3.251-0.499,5.433c0.252,2.163,1.018,4.689,2.824,7.028c0.901,1.147,2.128,2.236,3.422,3.09
			c1.288,0.86,2.648,1.607,3.874,2.4c1.235,0.786,2.296,1.662,2.884,2.598c0.571,0.933,0.721,1.937,0.642,3.388
			c-0.083,1.447-0.461,3.121-0.692,5.171c-0.121,1.009-0.176,2.173-0.031,3.453c0.121,1.265,0.592,2.761,1.461,4.016
			c0.831,1.298,2.111,2.296,3.229,2.91c1.144,0.643,2.186,1.031,3.069,1.395c0.896,0.358,1.597,0.686,2.096,1.01
			c0.45,0.319,0.82,0.671,1.149,1.173c0.669,0.987,1.117,2.571,1.407,4.355c0.151,0.892,0.275,1.835,0.409,2.816l0.217,1.508
			c0.094,0.58,0.206,1.152,0.348,1.711c0.584,2.23,1.463,4.361,3.027,6.287C618.516,587.579,619.492,588.479,620.715,589.132z"/>
		<path fill="#42161A" d="M875.749,590.968c-0.453-0.301-1.189-0.663-2.214-0.888c-1.02-0.203-2.333-0.256-3.792,0.131
			c-1.433,0.36-3.108,1.263-4.396,2.701c-1.311,1.426-2.303,3.337-2.798,5.473c-0.255,1.059-0.387,2.219-0.39,3.346
			c-0.012,1.113,0.062,2.18,0.137,3.199c0.163,2.016,0.281,3.955-0.103,5.12c-0.164,0.556-0.461,1.024-0.759,1.273
			c-0.322,0.288-0.799,0.532-1.27,0.609c-0.485,0.074-0.839,0.035-1.269-0.148c-0.421-0.186-0.825-0.524-1.083-0.892
			c-0.251-0.35-0.399-0.737-0.467-1.422c-0.063-0.663,0-1.519,0.104-2.479c0.093-0.95,0.246-2.021,0.222-3.254
			c-0.03-1.184-0.197-2.37-0.643-3.552c-0.426-1.165-1.21-2.362-2.318-3.153c-0.541-0.392-1.161-0.687-1.676-0.844
			c-0.514-0.161-0.947-0.243-1.304-0.31c-0.724-0.134-1.079-0.194-1.324-0.317c-0.273-0.12-0.507-0.322-0.701-0.643
			c-0.39-0.647-0.526-1.567-0.574-2.298c-0.041-0.748-0.015-1.364,0.01-1.78c0.028-0.42,0.043-0.64,0.043-0.64
			s-0.113,0.202-0.327,0.586c-0.206,0.39-0.5,0.969-0.776,1.769c-0.253,0.8-0.566,1.828-0.349,3.165
			c0.116,0.659,0.431,1.408,1.031,2.032c0.595,0.655,1.445,1.048,2.109,1.383c0.707,0.342,1.156,0.656,1.373,1.044
			c0.246,0.381,0.374,0.873,0.422,1.479c0.043,0.605-0.017,1.311-0.167,2.036c-0.147,0.678-0.421,1.567-0.686,2.565
			c-0.26,1.009-0.544,2.179-0.571,3.612c-0.042,1.398,0.32,3.182,1.232,4.639c0.888,1.451,2.191,2.645,3.818,3.403
			c1.622,0.775,3.641,0.988,5.404,0.578c1.784-0.394,3.403-1.304,4.638-2.657c1.238-1.376,1.909-2.998,2.184-4.54
			c0.486-3.094-0.211-5.363-0.619-7.305c-0.467-1.97-0.828-3.463-0.789-4.982c0.016-1.514,0.352-2.926,0.955-4.107
			c1.176-2.398,3.643-3.57,5.409-3.764c0.898-0.102,1.658-0.02,2.161,0.102c0.507,0.117,0.779,0.216,0.779,0.216
			S876.204,591.264,875.749,590.968z"/>
		<path fill="#42161A" d="M723.995,636.16c-0.282-0.381-0.43-0.58-0.43-0.58s0.059,0.245,0.172,0.711
			c0.073,0.469,0.162,1.151,0.06,1.972c-0.183,1.651-1.16,3.711-2.904,5.682c-0.864,0.977-1.961,2.015-3.125,3.273
			c-1.149,1.266-2.457,2.807-3.339,5.02c-0.906,2.277-0.923,4.797-0.833,6.849c0.042,1.044,0.101,2.012,0.102,2.891
			c-0.002,0.933-0.052,1.48-0.239,2.176c-0.167,0.67-0.454,1.269-0.731,1.688c-0.294,0.409-0.508,0.596-0.662,0.679
			c-0.194,0.102-0.374,0.182-0.722,0.09c-0.348-0.078-0.82-0.395-1.234-0.828c-1.759-1.62-1.853-5.301-2.501-8.23
			c-0.589-3.081-2.269-5.241-3.644-6.017c-1.405-0.802-2.218-0.525-2.197-0.58c-0.026,0.031,0.747,0.27,1.468,1.34
			c0.728,1.074,1.292,2.973,1.015,5.509c-0.096,1.316-0.349,2.848-0.398,4.753c-0.016,0.966,0.018,1.964,0.265,3.168
			c0.267,1.185,0.721,2.347,1.443,3.462c0.722,1.105,1.735,2.202,3.225,2.981c1.501,0.782,3.465,1.027,5.246,0.495
			c1.809-0.534,3.243-1.75,4.151-3.011c0.947-1.278,1.505-2.648,1.858-4.065c0.686-3.061,0.142-5.413-0.051-7.311
			c-0.257-1.934-0.359-3.331-0.076-4.549c0.566-2.612,2.719-5.372,3.96-8.219c1.272-2.863,1.456-5.613,0.962-7.41
			C724.604,637.195,724.238,636.564,723.995,636.16z"/>
		<path fill="#42161A" d="M860.731,659.018c-0.76-1.014-1.485-1.664-1.994-2.095c-0.512-0.426-0.82-0.63-0.82-0.63
			s-0.033,0.42-0.09,1.157c-0.047,0.724-0.087,1.752-0.197,2.878c-0.109,1.122-0.314,2.342-0.689,3.324
			c-0.36,1.024-0.873,1.815-1.265,2.297c-0.278,0.393-0.785,0.933-1.301,1.282c-0.251,0.177-0.578,0.32-0.882,0.387
			c-0.347,0.059-0.793-0.074-1.181-0.311c-0.793-0.471-1.358-1.357-1.47-2.119c-0.077-0.382-0.06-0.723-0.032-0.953
			c0.035-0.24,0.053-0.369,0.053-0.369s-0.101,0.071-0.292,0.205c-0.188,0.141-0.461,0.384-0.724,0.771
			c-0.546,0.761-1.01,2.177-0.587,3.89c0.212,0.848,0.659,1.783,1.528,2.61c0.912,0.857,2.048,1.365,3.319,1.563
			c2.51,0.354,5.223-0.645,6.968-2.935c1.644-2.216,1.842-4.694,1.54-6.575C862.294,661.436,861.475,660.034,860.731,659.018z"/>
		<path fill="#42161A" d="M581.853,646.99c-0.191-0.705-0.333-1.081-0.333-1.081s-0.279,0.369-0.717,1.025
			c-0.443,0.65-1.042,1.602-1.777,2.6c-0.728,1-1.632,1.992-2.565,2.574c-0.758,0.408-1.809,0.625-2.419,0.623
			c-0.296-0.014-0.378,0.027-0.505,0.06c-0.15,0.05-0.429-0.028-0.72-0.342c-0.596-0.651-0.984-1.832-1.001-3.041
			c-0.04-1.21,0.102-2.364,0.167-3.159c0.073-0.803,0.087-1.271,0.087-1.271s-0.355,0.223-0.963,0.69
			c-0.601,0.477-1.49,1.176-2.397,2.446c-0.876,1.237-1.821,3.33-1.341,5.938c0.24,1.294,0.949,2.797,2.29,3.888
			c1.327,1.104,3.138,1.607,4.69,1.513c3.137-0.18,5.471-1.913,6.745-4.061c1.128-1.992,1.282-3.867,1.243-5.252
			C582.286,648.735,582.037,647.698,581.853,646.99z"/>
		<path fill="#42161A" d="M462.029,658.094c-0.588,0.377-1.399,0.946-2.306,1.596c-0.908,0.646-1.916,1.357-2.893,1.925
			c-0.967,0.569-1.863,0.938-2.712,1.293c-0.817,0.346-1.473,0.595-2.107,0.79c-0.632,0.186-1.678-0.026-2.459-0.514
			c-0.807-0.469-1.421-1.238-1.673-1.936c-0.121-0.342-0.201-0.657-0.222-0.87c-0.031-0.224-0.048-0.345-0.048-0.345
			s-0.076,0.082-0.22,0.236c-0.154,0.157-0.336,0.414-0.546,0.792c-0.393,0.744-0.7,2.07-0.316,3.597
			c0.377,1.499,1.362,3.265,3.5,4.362c2.115,1.043,4.68,0.979,6.771,0.063c2.089-0.877,3.608-2.464,4.483-3.94
			c0.886-1.482,1.264-2.871,1.476-3.997c0.204-1.132,0.238-2.031,0.245-2.655c0.005-0.623-0.022-0.971-0.022-0.971
			S462.617,657.714,462.029,658.094z"/>
		<path fill="#42161A" d="M748.329,435.102c-0.603,0.352-1.097,0.563-1.661,0.648c-0.606,0.083-1.393-0.103-2.035-0.425
			c-0.646-0.322-1.161-0.763-1.48-1.127c-0.327-0.364-0.487-0.625-0.487-0.625s-0.056,0.071-0.161,0.205
			c-0.109,0.14-0.241,0.354-0.376,0.666c-0.265,0.614-0.479,1.655-0.138,2.97c0.343,1.275,1.275,2.861,3.189,3.818
			c1.925,0.991,4.659,0.895,6.731-0.428c2.097-1.279,3.41-3.665,3.384-5.864c-0.01-2.171-1.036-3.735-2.055-4.612
			c-1.051-0.894-2.1-1.162-2.779-1.191c-0.688-0.028-1.035,0.108-1.035,0.108s0.185,0.265,0.395,0.726
			c0.211,0.457,0.403,1.143,0.419,1.886c0.028,0.741-0.179,1.551-0.527,2.044C749.375,434.352,748.92,434.743,748.329,435.102z"/>
		<path fill="#42161A" d="M622.64,439.159c-0.616,0.386-1.259,0.788-1.925,1.205c-0.274,0.155-0.523,0.275-0.702,0.342
			c-0.074,0.026-0.126,0.04-0.164,0.047c-0.017-0.021-0.036-0.041-0.052-0.063c-0.431-0.774-0.354-2.365-0.335-3.739
			c0.03-1.41-0.18-2.646-0.517-3.354c-0.329-0.722-0.654-0.978-0.654-0.978s-0.101,0.348-0.394,0.881
			c-0.292,0.543-0.807,1.23-1.565,2.212c-0.695,1.013-1.922,2.378-2.215,5.091c-0.072,1.47,0.227,2.986,1.337,4.462
			c0.552,0.724,1.394,1.424,2.442,1.834c1.043,0.401,2.203,0.47,3.181,0.267c1.973-0.43,3.028-1.378,3.874-2.149
			c0.806-0.8,1.336-1.478,1.889-2.235c1.059-1.475,1.777-2.94,2.26-4.197c0.48-1.262,0.725-2.321,0.857-3.055
			c0.133-0.734,0.157-1.148,0.157-1.148s-1.5,0.919-3.817,2.337C625.243,437.566,624.004,438.324,622.64,439.159z"/>
		<path fill="#42161A" d="M956.611,666.122c4.331,0,4.338-6.731,0-6.731C952.28,659.391,952.273,666.122,956.611,666.122z"/>
		<path fill="#42161A" d="M941.186,658.269c4.331,0,4.338-6.731,0-6.731C936.855,651.539,936.848,658.269,941.186,658.269z"/>
		<path fill="#42161A" d="M940.064,674.255c4.331,0,4.338-6.731,0-6.731C935.733,667.524,935.726,674.255,940.064,674.255z"/>
		<path fill="#42161A" d="M694.111,488.878c-4.331,0-4.338,6.731,0,6.731C698.441,495.609,698.449,488.878,694.111,488.878z"/>
		<path fill="#42161A" d="M693.55,509.07c-4.331,0-4.338,6.731,0,6.731C697.881,515.801,697.888,509.07,693.55,509.07z"/>
		<path fill="#42161A" d="M709.255,509.912c4.331,0,4.338-6.731,0-6.731C704.924,503.181,704.917,509.912,709.255,509.912z"/>
		<path fill="#42161A" d="M598.197,611.434c-4.331,0-4.338,6.731,0,6.731C602.528,618.165,602.535,611.434,598.197,611.434z"/>
		<path fill="#42161A" d="M583.894,620.689c-4.331,0-4.338,6.731,0,6.731C588.225,627.42,588.232,620.689,583.894,620.689z"/>
		<path fill="#42161A" d="M597.356,629.102c-4.331,0-4.338,6.731,0,6.731C601.687,635.833,601.694,629.102,597.356,629.102z"/>
		<path fill="#42161A" d="M469.05,626.999c-4.331,0-4.338,6.731,0,6.731C473.381,633.73,473.388,626.999,469.05,626.999z"/>
		<path fill="#42161A" d="M713.181,615.921c4.331,0,4.338-6.731,0-6.731C708.85,609.191,708.843,615.921,713.181,615.921z"/>
		<path fill="#42161A" d="M726.362,619.848c-4.331,0-4.338,6.731,0,6.731C730.693,626.578,730.7,619.848,726.362,619.848z"/>
		<path fill="#42161A" d="M731.13,604.423c-4.331,0-4.338,6.731,0,6.731C735.461,611.154,735.468,604.423,731.13,604.423z"/>
		<path fill="#42161A" d="M833.774,638.357c-4.331,0-4.338,6.731,0,6.731C838.105,645.088,838.112,638.357,833.774,638.357z"/>
		<path fill="#42161A" d="M778.245,419.327c-4.331,0-4.338,6.731,0,6.731C782.576,426.057,782.583,419.327,778.245,419.327z"/>
		<path fill="#42161A" d="M560.056,515.24c-4.331,0-4.338,6.731,0,6.731C564.387,521.971,564.394,515.24,560.056,515.24z"/>
		<path fill="#42161A" d="M644.471,417.083c4.331,0,4.338-6.731,0-6.731C640.14,410.352,640.133,417.083,644.471,417.083z"/>
		<path fill="#42161A" d="M824.239,499.535c4.331,0,4.338-6.731,0-6.731C819.908,492.804,819.901,499.535,824.239,499.535z"/>
		<path fill="#42161A" d="M383.934,861.595c3.248,0,3.254-5.048,0-5.048C380.686,856.547,380.68,861.595,383.934,861.595z"/>
		<path fill="#42161A" d="M407.492,956.386c3.248,0,3.254-5.048,0-5.048C404.244,951.338,404.238,956.386,407.492,956.386z"/>
		<path fill="#42161A" d="M403.565,947.412c3.248,0,3.254-5.048,0-5.048C400.317,942.364,400.312,947.412,403.565,947.412z"/>
		<path fill="#42161A" d="M397.956,954.143c3.248,0,3.254-5.048,0-5.048C394.708,949.095,394.703,954.143,397.956,954.143z"/>
		<path fill="#42161A" d="M993.63,1049.355c3.248,0,3.254-5.048,0-5.048C990.382,1044.307,990.377,1049.355,993.63,1049.355z"/>
		<path fill="#42161A" d="M1015.926,910.112c3.248,0,3.254-5.048,0-5.048C1012.678,905.064,1012.672,910.112,1015.926,910.112z"/>
		<path fill="#42161A" d="M1015.084,900.858c3.248,0,3.254-5.048,0-5.048C1011.836,895.81,1011.831,900.858,1015.084,900.858z"/>
		<path fill="#42161A" d="M1005.409,905.906c3.248,0,3.254-5.048,0-5.048C1002.161,900.858,1002.155,905.906,1005.409,905.906z"/>
		<path fill="#42161A" d="M995.874,809.431c-3.248,0-3.254,5.048,0,5.048C999.122,814.479,999.127,809.431,995.874,809.431z"/>
	</g>
	
		<text transform="matrix(1 0 0 1 512.4282 937.3945)" fill="#42161A" font-family="'Exo-Black'" font-size="128.4767px" letter-spacing="3">PIZZA</text>
	
		<text transform="matrix(1 0 0 1 481.6587 1045.0869)" fill="#42161A" font-family="'Exo-Bold'" font-size="128.4767px" letter-spacing="3">HOUSE</text>
</g>
</svg>
